<?xml version="1.0" encoding="UTF-8" standalone="no"?>
<!-- Created with Inkscape (http://www.inkscape.org/) -->

<svg
   version="1.1"
   id="svg1"
   width="666.66669"
   height="666.66669"
   viewBox="0 0 666.66669 666.66669"
   sodipodi:docname="10268770.eps"
   xmlns:inkscape="http://www.inkscape.org/namespaces/inkscape"
   xmlns:sodipodi="http://sodipodi.sourceforge.net/DTD/sodipodi-0.dtd"
   xmlns="http://www.w3.org/2000/svg"
   xmlns:svg="http://www.w3.org/2000/svg">
  <defs
     id="defs1">
    <clipPath
       clipPathUnits="userSpaceOnUse"
       id="clipPath10">
      <path
         d="m 3514.42,2327.96 c 0,0 -181.14,-380.62 -73.61,-841.76 l 140.61,-53.76 c 0,0 0.05,698.92 119.94,902.62 l -186.94,-7.1"
         transform="translate(0,2.5e-5)"
         id="path10" />
    </clipPath>
    <clipPath
       clipPathUnits="userSpaceOnUse"
       id="clipPath12">
      <path
         d="m 3514.42,2327.96 c 0,0 -181.14,-380.62 -73.61,-841.76 l 140.61,-53.76 c 0,0 0.05,698.92 119.94,902.62 l -186.94,-7.1"
         transform="translate(0,2.5e-5)"
         id="path12" />
    </clipPath>
    <clipPath
       clipPathUnits="userSpaceOnUse"
       id="clipPath14">
      <path
         d="m 3514.42,2327.96 c 0,0 -181.14,-380.62 -73.61,-841.76 l 140.61,-53.76 c 0,0 0.05,698.92 119.94,902.62 l -186.94,-7.1"
         transform="translate(0,2.5e-5)"
         id="path14" />
    </clipPath>
    <clipPath
       clipPathUnits="userSpaceOnUse"
       id="clipPath16">
      <path
         d="m 3514.42,2327.96 c 0,0 -181.14,-380.62 -73.61,-841.76 l 140.61,-53.76 c 0,0 0.05,698.92 119.94,902.62 l -186.94,-7.1"
         transform="translate(0,2.5e-5)"
         id="path16" />
    </clipPath>
    <clipPath
       clipPathUnits="userSpaceOnUse"
       id="clipPath18">
      <path
         d="m 3514.42,2327.96 c 0,0 -181.14,-380.62 -73.61,-841.76 l 140.61,-53.76 c 0,0 0.05,698.92 119.94,902.62 l -186.94,-7.1"
         transform="translate(0,2.5e-5)"
         id="path18" />
    </clipPath>
    <clipPath
       clipPathUnits="userSpaceOnUse"
       id="clipPath25">
      <path
         d="m 3951.05,2269.13 c 0,0 -64.97,-262.52 128.76,-840.32 l 204.11,-65.64 c 0,0 -184.77,780.77 -181.27,982.49 l -151.6,-76.53"
         transform="translate(0,2.5e-5)"
         id="path25" />
    </clipPath>
    <clipPath
       clipPathUnits="userSpaceOnUse"
       id="clipPath27">
      <path
         d="m 3951.05,2269.13 c 0,0 -64.97,-262.52 128.76,-840.32 l 204.11,-65.64 c 0,0 -184.77,780.77 -181.27,982.49 l -151.6,-76.53"
         transform="translate(0,2.5e-5)"
         id="path27" />
    </clipPath>
    <clipPath
       clipPathUnits="userSpaceOnUse"
       id="clipPath29">
      <path
         d="m 3951.05,2269.13 c 0,0 -64.97,-262.52 128.76,-840.32 l 204.11,-65.64 c 0,0 -184.77,780.77 -181.27,982.49 l -151.6,-76.53"
         transform="translate(0,2.5e-5)"
         id="path29" />
    </clipPath>
    <clipPath
       clipPathUnits="userSpaceOnUse"
       id="clipPath31">
      <path
         d="m 3951.05,2269.13 c 0,0 -64.97,-262.52 128.76,-840.32 l 204.11,-65.64 c 0,0 -184.77,780.77 -181.27,982.49 l -151.6,-76.53"
         transform="translate(0,2.5e-5)"
         id="path31" />
    </clipPath>
    <clipPath
       clipPathUnits="userSpaceOnUse"
       id="clipPath33">
      <path
         d="m 3951.05,2269.13 c 0,0 -64.97,-262.52 128.76,-840.32 l 204.11,-65.64 c 0,0 -184.77,780.77 -181.27,982.49 l -151.6,-76.53"
         transform="translate(0,2.5e-5)"
         id="path33" />
    </clipPath>
    <clipPath
       clipPathUnits="userSpaceOnUse"
       id="clipPath50">
      <path
         d="m 3285.71,3535.48 c 0,0 18.54,-213.69 -152.77,-485.83 l -85.66,62.19 c 0,0 128.57,318.84 118.9,479.85 l 119.53,-56.21"
         transform="translate(0,2.5e-5)"
         id="path50" />
    </clipPath>
    <clipPath
       clipPathUnits="userSpaceOnUse"
       id="clipPath52">
      <path
         d="m 3285.71,3535.48 c 0,0 18.54,-213.69 -152.77,-485.83 l -85.66,62.19 c 0,0 128.57,318.84 118.9,479.85 l 119.53,-56.21"
         transform="translate(0,2.5e-5)"
         id="path52" />
    </clipPath>
    <clipPath
       clipPathUnits="userSpaceOnUse"
       id="clipPath73">
      <path
         d="m 4053.59,3754.17 c 0,0 227.19,-71.86 430.87,-370.68 l -101.39,-64.45 c 0,0 -270.33,273.36 -439.63,332.08 l 110.15,103.05"
         transform="translate(0,2.5e-5)"
         id="path73" />
    </clipPath>
    <clipPath
       clipPathUnits="userSpaceOnUse"
       id="clipPath75">
      <path
         d="m 4053.59,3754.17 c 0,0 227.19,-71.86 430.87,-370.68 l -101.39,-64.45 c 0,0 -270.33,273.36 -439.63,332.08 l 110.15,103.05"
         transform="translate(0,2.5e-5)"
         id="path75" />
    </clipPath>
  </defs>
  <sodipodi:namedview
     id="namedview1"
     pagecolor="#ffffff"
     bordercolor="#000000"
     borderopacity="0.25"
     inkscape:showpageshadow="2"
     inkscape:pageopacity="0.0"
     inkscape:pagecheckerboard="0"
     inkscape:deskcolor="#d1d1d1">
    <inkscape:page
       x="0"
       y="0"
       inkscape:label="1"
       id="page1"
       width="666.66669"
       height="666.66669"
       margin="0"
       bleed="0" />
  </sodipodi:namedview>
  <g
     id="g1"
     inkscape:groupmode="layer"
     inkscape:label="1">
    <g
       id="group-R5">
      <path
         id="path2"
         d="M 0,0 H 5000 V 5000 H 0 Z"
         style="fill:#2364a7;fill-opacity:1;fill-rule:nonzero;stroke:none"
         transform="matrix(0.13333333,0,0,-0.13333333,0,666.66667)" />
      <path
         id="path3"
         d="m 1227.12,307.672 c -460.425,0 -833.667,43.719 -833.667,97.637 0,53.933 373.242,97.652 833.667,97.652 77.33,0 152.21,-1.231 223.27,-3.539 -0.53,-26.391 0.5,-50.922 1.65,-68.742 1.04,-16.051 14.04,-28.59 30.12,-28.918 50.21,-1.012 164.73,-4.18 311.97,-13.621 20.33,-1.301 38.98,-1.891 56.12,-1.891 77.5,0 123.73,11.969 150.4,23.672 11.29,4.949 18.56,14.418 21.24,24.957 25.26,-9.328 38.88,-19.258 38.88,-29.57 0,-53.918 -373.24,-97.637 -833.65,-97.637"
         style="fill:#1d4977;fill-opacity:1;fill-rule:nonzero;stroke:none"
         transform="matrix(0.13333333,0,0,-0.13333333,0,666.66667)" />
      <path
         id="path4"
         d="m 3809.83,343.09 c -460.42,0 -833.66,43.711 -833.66,97.64 0,53.93 373.24,97.649 833.66,97.649 460.42,0 833.66,-43.719 833.66,-97.649 0,-53.929 -373.24,-97.64 -833.66,-97.64"
         style="fill:#1d4977;fill-opacity:1;fill-rule:nonzero;stroke:none"
         transform="matrix(0.13333333,0,0,-0.13333333,0,666.66667)" />
      <path
         id="path5"
         d="m 3542.72,627.871 c 47.43,-3.402 88.63,32.301 92.02,79.731 3.4,47.429 -32.3,88.628 -79.73,92.027 -47.43,3.391 -88.63,-32.297 -92.03,-79.731 -3.39,-47.429 32.31,-88.636 79.74,-92.027"
         style="fill:#040606;fill-opacity:1;fill-rule:nonzero;stroke:none"
         transform="matrix(0.13333333,0,0,-0.13333333,0,666.66667)" />
      <path
         id="path6"
         d="m 3483.26,656.711 c 0,0 -316.83,-91 -368.81,-158.563 -51.98,-67.566 145.35,-61.867 279.82,-53.476 124.9,7.797 318.95,51.918 318.95,51.918 0,0 2.3,138.91 -78.81,216.742 0,0 -36.92,-97.293 -151.15,-56.621"
         style="fill:#e5e2da;fill-opacity:1;fill-rule:nonzero;stroke:none"
         transform="matrix(0.13333333,0,0,-0.13333333,0,666.66667)" />
      <path
         id="path7"
         d="m 3718.2,2306.74 c 47.97,60.05 38.17,147.61 -21.87,195.58 -60.05,47.97 -147.61,38.17 -195.58,-21.88 -47.97,-60.04 -38.17,-147.61 21.88,-195.57 60.04,-47.97 147.61,-38.17 195.57,21.87"
         style="fill:#040606;fill-opacity:1;fill-rule:nonzero;stroke:none"
         transform="matrix(0.13333333,0,0,-0.13333333,0,666.66667)" />
      <path
         id="path8"
         d="m 3514.42,2327.96 c 0,0 -181.14,-380.62 -73.61,-841.76 l 140.61,-53.76 c 0,0 0.05,698.92 119.94,902.62 l -186.94,-7.1"
         style="fill:#040606;fill-opacity:1;fill-rule:nonzero;stroke:none"
         transform="matrix(0.13333333,0,0,-0.13333333,0,666.66667)" />
      <path
         id="path9"
         d="m 3633.31,2012.04 -5.12,8.27 c -137.64,-85.31 -220.27,20.09 -223.72,24.62 l -7.75,-5.89 c 0.89,-1.18 91.29,-117.07 236.59,-27"
         style="fill:#205e8e;fill-opacity:1;fill-rule:nonzero;stroke:none"
         transform="matrix(0.13333333,0,0,-0.13333333,0,666.66667)"
         clip-path="url(#clipPath10)" />
      <path
         id="path11"
         d="m 3667.89,2151.35 -5.13,8.28 c -57.94,-35.92 -113.2,-42.67 -164.25,-20.08 -38.05,16.85 -59.26,44.42 -59.47,44.69 l -7.75,-5.88 c 0.9,-1.19 91.3,-117.08 236.6,-27.01"
         style="fill:#205e8e;fill-opacity:1;fill-rule:nonzero;stroke:none"
         transform="matrix(0.13333333,0,0,-0.13333333,0,666.66667)"
         clip-path="url(#clipPath12)" />
      <path
         id="path13"
         d="m 3615.59,1718.91 -5.96,7.69 c -127.98,-99.21 -221.16,-3.01 -225.06,1.14 l -7.1,-6.67 c 1.01,-1.08 103.02,-106.9 238.12,-2.16"
         style="fill:#205e8e;fill-opacity:1;fill-rule:nonzero;stroke:none"
         transform="matrix(0.13333333,0,0,-0.13333333,0,666.66667)"
         clip-path="url(#clipPath14)" />
      <path
         id="path15"
         d="m 3620.84,1599.28 -7.37,6.36 c -105.77,-122.62 -216.18,-46.8 -220.82,-43.51 l -5.64,-7.94 c 1.21,-0.86 122.17,-84.35 233.83,45.09"
         style="fill:#205e8e;fill-opacity:1;fill-rule:nonzero;stroke:none"
         transform="matrix(0.13333333,0,0,-0.13333333,0,666.66667)"
         clip-path="url(#clipPath16)" />
      <path
         id="path17"
         d="m 3632.33,1873.48 -5.96,7.7 c -53.88,-41.77 -108.13,-54.26 -161.26,-37.11 -39.6,12.78 -63.57,37.98 -63.8,38.23 l -7.1,-6.66 c 1.02,-1.08 103.02,-106.9 238.12,-2.16"
         style="fill:#205e8e;fill-opacity:1;fill-rule:nonzero;stroke:none"
         transform="matrix(0.13333333,0,0,-0.13333333,0,666.66667)"
         clip-path="url(#clipPath18)" />
      <path
         id="path19"
         d="m 3396.15,1576.31 c 0,0 -48.41,-343.24 54.66,-836.04 1.37,-6.551 8.59,-8.188 12.41,-2.782 11.88,16.813 35.81,43.211 71.94,49.274 62.86,10.547 62.89,-39.43 79.35,16.008 58.93,198.52 78.41,306.47 37.22,530.41 -49.63,269.86 -255.58,243.13 -255.58,243.13"
         style="fill:#e5e2da;fill-opacity:1;fill-rule:nonzero;stroke:none"
         transform="matrix(0.13333333,0,0,-0.13333333,0,666.66667)" />
      <path
         id="path20"
         d="m 3438.2,2574.75 c 101.32,-433.33 441.7,-397.27 636.41,-290.35 206.99,113.66 121.45,244.64 46.7,444 -292.38,-216.93 -589.38,-169.65 -683.11,-153.65"
         style="fill:#e5e2da;fill-opacity:1;fill-rule:nonzero;stroke:none"
         transform="matrix(0.13333333,0,0,-0.13333333,0,666.66667)" />
      <path
         id="path21"
         d="m 4119.85,2750.91 c 18.4,-70.5 -119.28,-167.09 -307.52,-215.74 -188.23,-48.64 -355.73,-30.92 -374.13,39.58 -18.39,70.51 119.29,167.1 307.52,215.74 188.24,48.65 355.74,30.93 374.13,-39.58"
         style="fill:#949390;fill-opacity:1;fill-rule:nonzero;stroke:none"
         transform="matrix(0.13333333,0,0,-0.13333333,0,666.66667)" />
      <path
         id="path22"
         d="m 4165.73,2339.69 c 21.19,82.08 -28.17,165.79 -110.24,186.99 -82.08,21.19 -165.79,-28.17 -186.99,-110.24 -21.19,-82.08 28.17,-165.8 110.24,-186.99 82.08,-21.19 165.79,28.17 186.99,110.24"
         style="fill:#040606;fill-opacity:1;fill-rule:nonzero;stroke:none"
         transform="matrix(0.13333333,0,0,-0.13333333,0,666.66667)" />
      <path
         id="path23"
         d="m 3951.05,2269.12 c 0,0 -64.97,-262.51 128.76,-840.31 l 204.11,-65.64 c 0,0 -184.77,780.77 -181.27,982.49 l -151.6,-76.54"
         style="fill:#040606;fill-opacity:1;fill-rule:nonzero;stroke:none"
         transform="matrix(0.13333333,0,0,-0.13333333,0,666.66667)" />
      <path
         id="path24"
         d="m 4189.01,2003.66 -8.89,6.01 c -100.06,-147.95 -230.77,-79.13 -236.28,-76.13 l -5.15,-9.42 c 1.43,-0.79 144.7,-76.65 250.32,79.54"
         style="fill:#205e8e;fill-opacity:1;fill-rule:nonzero;stroke:none"
         transform="matrix(0.13333333,0,0,-0.13333333,0,666.66667)"
         clip-path="url(#clipPath25)" />
      <path
         id="path26"
         d="m 4160.97,2159.48 -8.9,6.02 c -42.12,-62.29 -94.69,-94.02 -156.26,-94.3 -45.9,-0.2 -79.68,17.98 -80.02,18.16 l -5.15,-9.42 c 1.44,-0.79 144.71,-76.66 250.33,79.54"
         style="fill:#205e8e;fill-opacity:1;fill-rule:nonzero;stroke:none"
         transform="matrix(0.13333333,0,0,-0.13333333,0,666.66667)"
         clip-path="url(#clipPath27)" />
      <path
         id="path28"
         d="m 4251.45,1686.61 -8.89,6.02 c -100.06,-147.96 -230.77,-79.14 -236.28,-76.13 l -5.15,-9.42 c 1.43,-0.8 144.7,-76.66 250.32,79.53"
         style="fill:#205e8e;fill-opacity:1;fill-rule:nonzero;stroke:none"
         transform="matrix(0.13333333,0,0,-0.13333333,0,666.66667)"
         clip-path="url(#clipPath29)" />
      <path
         id="path30"
         d="m 4296.88,1519.05 -8.89,6.01 c -100.06,-147.95 -230.77,-79.14 -236.29,-76.13 l -5.14,-9.42 c 1.43,-0.79 144.7,-76.66 250.32,79.54"
         style="fill:#205e8e;fill-opacity:1;fill-rule:nonzero;stroke:none"
         transform="matrix(0.13333333,0,0,-0.13333333,0,666.66667)"
         clip-path="url(#clipPath31)" />
      <path
         id="path32"
         d="m 4223.41,1842.44 -8.9,6.02 c -42.12,-62.29 -94.69,-94.02 -156.26,-94.3 -45.9,-0.21 -79.68,17.97 -80.01,18.15 l -5.16,-9.41 c 1.44,-0.79 144.71,-76.66 250.33,79.54"
         style="fill:#205e8e;fill-opacity:1;fill-rule:nonzero;stroke:none"
         transform="matrix(0.13333333,0,0,-0.13333333,0,666.66667)"
         clip-path="url(#clipPath33)" />
      <path
         id="path34"
         d="m 4301.6,519.34 c 49.62,-6.688 95.27,28.101 101.97,77.719 6.69,49.621 -28.1,95.273 -77.72,101.972 -49.62,6.688 -95.27,-28.101 -101.97,-77.722 -6.69,-49.618 28.1,-95.27 77.72,-101.969"
         style="fill:#040606;fill-opacity:1;fill-rule:nonzero;stroke:none"
         transform="matrix(0.13333333,0,0,-0.13333333,0,666.66667)" />
      <path
         id="path35"
         d="m 4043.59,1436.57 c 0,0 -16.82,-297.43 169.54,-813.039 2.47,-6.859 9.85,-7.261 12.67,-0.652 8.75,20.519 51.68,45.519 86.11,59.019 59.89,23.481 38.14,35.262 64.85,91.793 38.39,81.258 55.12,219.86 12.16,466.439 -55.83,320.52 -345.33,196.44 -345.33,196.44"
         style="fill:#e5e2da;fill-opacity:1;fill-rule:nonzero;stroke:none"
         transform="matrix(0.13333333,0,0,-0.13333333,0,666.66667)" />
      <path
         id="path36"
         d="m 4149.72,1458.25 c -7.59,74.06 -55.38,136.16 -106.76,138.71 -51.37,2.55 -86.87,-55.42 -79.29,-129.48 7.59,-74.06 55.39,-136.16 106.76,-138.71 51.37,-2.55 86.87,55.42 79.29,129.48"
         style="fill:#e5e2da;fill-opacity:1;fill-rule:nonzero;stroke:none"
         transform="matrix(0.13333333,0,0,-0.13333333,0,666.66667)" />
      <path
         id="path37"
         d="m 4009.67,1592.23 c -0.01,-0.13 -3.11,-27.45 -3.11,-65.13 0,-32.45 2.28,-72.57 10.91,-109.8 8.66,-37.18 23.57,-71.72 49.87,-92.46 l 3.09,3.93 -4.96,-0.62 c 0.01,-0.06 16.98,-135.29 46.45,-289.08 14.74,-76.898 32.6,-158.441 53.06,-230.109 20.49,-71.699 43.42,-133.43 68.95,-171.27 l 8.28,5.598 c -24.36,35.992 -47.32,97.211 -67.62,168.41 -30.5,106.852 -55.32,236.351 -72.49,339.061 -8.59,51.36 -15.27,96.03 -19.8,127.85 -2.26,15.92 -3.99,28.62 -5.15,37.34 -1.17,8.72 -1.76,13.43 -1.76,13.45 l -0.25,2.04 -1.62,1.27 c -23.44,18.32 -37.97,50.74 -46.31,86.85 -8.37,36.07 -10.66,75.57 -10.65,107.54 0,18.57 0.76,34.6 1.53,45.98 0.38,5.68 0.76,10.2 1.05,13.3 0.28,3.09 0.47,4.71 0.47,4.72 l -9.94,1.13"
         style="fill:#949390;fill-opacity:1;fill-rule:nonzero;stroke:none"
         transform="matrix(0.13333333,0,0,-0.13333333,0,666.66667)" />
      <path
         id="path38"
         d="m 3503.37,1530.52 c 1.19,66.66 -34.66,126.99 -80.07,134.75 -45.4,7.76 -83.16,-39.98 -84.35,-106.63 -1.18,-66.66 34.67,-126.99 80.08,-134.75 45.4,-7.77 83.16,39.98 84.34,106.63"
         style="fill:#e5e2da;fill-opacity:1;fill-rule:nonzero;stroke:none"
         transform="matrix(0.13333333,0,0,-0.13333333,0,666.66667)" />
      <path
         id="path39"
         d="m 3392.69,1664.74 c -0.04,-0.21 -13.67,-57.59 -13.69,-119.22 0.01,-23.33 1.96,-47.29 7.44,-69.1 5.5,-21.78 14.54,-41.53 29.05,-56.07 l 3.54,3.54 -5,-0.09 c 0,-0.03 2.82,-165.21 12.28,-330.48 4.73,-82.64 11.11,-165.289 19.66,-227.468 4.28,-31.102 9.07,-57.063 14.59,-75.571 2.77,-9.281 5.68,-16.679 9.06,-22.172 1.71,-2.75 3.54,-5.039 5.76,-6.808 2.19,-1.762 4.96,-2.992 7.95,-2.981 2,0 3.97,0.551 5.71,1.45 l -4.6,8.878 -1.11,-0.328 c -0.32,0.012 -0.78,0.071 -1.74,0.809 -1.85,1.391 -4.65,5.48 -7.21,11.781 -4.91,11.82 -9.59,31.09 -13.76,55.371 -14.69,85.117 -23.88,232.239 -29.34,357.829 -2.74,62.82 -4.55,120.29 -5.68,162.06 -0.56,20.88 -0.96,37.83 -1.21,49.57 -0.25,11.73 -0.36,18.22 -0.36,18.23 l -0.04,2.02 -1.43,1.43 c -12.75,12.74 -21.22,30.76 -26.42,51.45 -5.21,20.66 -7.14,43.88 -7.14,66.65 0,30.09 3.36,59.39 6.72,81.11 1.68,10.87 3.36,19.84 4.62,26.09 0.63,3.12 1.15,5.56 1.52,7.22 0.36,1.65 0.56,2.49 0.56,2.5 l -9.73,2.3"
         style="fill:#949390;fill-opacity:1;fill-rule:nonzero;stroke:none"
         transform="matrix(0.13333333,0,0,-0.13333333,0,666.66667)" />
      <path
         id="path40"
         d="m 3423.82,2838.38 c 0,0 193.16,-79.4 439.79,68.28 191.74,114.81 -589.14,421.42 -439.79,-68.28"
         style="fill:#949390;fill-opacity:1;fill-rule:nonzero;stroke:none"
         transform="matrix(0.13333333,0,0,-0.13333333,0,666.66667)" />
      <path
         id="path41"
         d="m 3472.27,3237.47 c 0,0 17.93,-238.31 192.84,-598.3 l 3.53,-0.22 c 82.24,-5.05 161.63,30.99 211.74,96.13 0,0 -210.43,375.72 -173.13,570.45 l -234.98,-68.06"
         style="fill:#040606;fill-opacity:1;fill-rule:nonzero;stroke:none"
         transform="matrix(0.13333333,0,0,-0.13333333,0,666.66667)" />
      <path
         id="path42"
         d="m 2554.62,2736.57 c -36.19,-35.01 -145.9,-89.57 -184.68,-94.01 -66.52,-7.6 -84.44,7.19 -84.44,7.19 -17.74,-2.2 -35.71,4.56 -48.23,18.12 l -4.07,4.41 c -50.62,2.71 -23.54,40.29 -23.54,40.29 -21.53,-1.12 -40.84,14.23 -19.73,36.9 31.23,33.52 153.12,97.62 153.12,97.62 0,0 -4.55,36.51 -27.27,31.86 -57.32,-11.72 -74.89,11.45 -75.25,18.07 -0.35,6.62 -0.49,7.58 30.49,24.88 29.94,16.72 70,30.52 96.64,27.04 62.21,-8.12 165.85,48.77 186.62,-57.59 1.38,-7.06 68.07,-89.27 0.34,-154.78"
         style="fill:#c8c4bd;fill-opacity:1;fill-rule:nonzero;stroke:none"
         transform="matrix(0.13333333,0,0,-0.13333333,0,666.66667)" />
      <path
         id="path43"
         d="m 2360.16,2787.58 c -0.02,-0.01 -6.72,-4.41 -17.52,-11.08 -16.18,-10.01 -41.49,-25.07 -66.8,-37.78 -25.25,-12.72 -50.71,-23.02 -66.29,-23.65 l 0.22,-4.99 c 11.55,0.52 26.64,5.42 43.08,12.39 49.2,20.93 109.99,60.9 110.05,60.94 l -2.74,4.17"
         style="fill:#040606;fill-opacity:1;fill-rule:nonzero;stroke:none"
         transform="matrix(0.13333333,0,0,-0.13333333,0,666.66667)" />
      <path
         id="path44"
         d="m 2379.03,2731.49 c -0.02,-0.01 -6.41,-3.6 -16.63,-9 -15.33,-8.1 -39.21,-20.27 -62.73,-30.38 -23.47,-10.12 -46.81,-18.13 -60.09,-18.07 -2.24,0 -4.17,0.22 -5.72,0.65 l -1.32,-4.83 c 2.12,-0.57 4.47,-0.82 7.04,-0.82 10.03,0.02 23.64,3.73 38.73,9.17 45.18,16.37 103.1,48.89 103.16,48.92 l -2.44,4.36"
         style="fill:#040606;fill-opacity:1;fill-rule:nonzero;stroke:none"
         transform="matrix(0.13333333,0,0,-0.13333333,0,666.66667)" />
      <path
         id="path45"
         d="m 2285.98,2647.29 c 0.13,0.06 79.14,15.58 128.45,46.28 l -2.65,4.25 c -23.98,-14.97 -55.74,-26.43 -81.44,-34.08 -12.85,-3.83 -24.2,-6.72 -32.32,-8.65 -8.13,-1.93 -13,-2.89 -13.01,-2.89 l 0.97,-4.91"
         style="fill:#040606;fill-opacity:1;fill-rule:nonzero;stroke:none"
         transform="matrix(0.13333333,0,0,-0.13333333,0,666.66667)" />
      <path
         id="path46"
         d="m 2346.73,2867.98 40.55,-18.05 1.02,2.29 -1.64,-1.89 c 0.22,-0.15 22.76,-19.84 54.96,-19.89 19.72,-0.03 42.94,7.57 66.07,31.32 l -3.58,3.49 c -22.39,-22.92 -44.05,-29.79 -62.49,-29.81 -15.04,-0.01 -28,4.66 -37.2,9.36 -4.6,2.35 -8.24,4.7 -10.73,6.45 -1.24,0.87 -2.19,1.6 -2.83,2.1 l -0.92,0.75 -0.28,0.25 -40.89,18.19 -2.03,-4.56"
         style="fill:#040606;fill-opacity:1;fill-rule:nonzero;stroke:none"
         transform="matrix(0.13333333,0,0,-0.13333333,0,666.66667)" />
      <path
         id="path47"
         d="m 3121.78,3609.36 c -19.17,64.88 15.99,133.35 78.54,152.94 62.55,19.6 128.8,-17.11 147.97,-81.98 19.18,-64.87 -15.99,-133.35 -78.53,-152.94 -62.55,-19.59 -128.8,17.11 -147.98,81.98"
         style="fill:#040606;fill-opacity:1;fill-rule:nonzero;stroke:none"
         transform="matrix(0.13333333,0,0,-0.13333333,0,666.66667)" />
      <path
         id="path48"
         d="m 3285.71,3535.48 c 0,0 18.54,-213.69 -152.77,-485.83 l -85.66,62.19 c 0,0 128.57,318.84 118.9,479.85 l 119.53,-56.21"
         style="fill:#040606;fill-opacity:1;fill-rule:nonzero;stroke:none"
         transform="matrix(0.13333333,0,0,-0.13333333,0,666.66667)" />
      <path
         id="path49"
         d="m 3076.2,3272.63 6.65,5.1 c 82.25,-114.94 180.66,-55.72 184.8,-53.14 l 4.3,-7.36 c -1.08,-0.68 -108.92,-65.93 -195.75,55.4"
         style="fill:#205e8e;fill-opacity:1;fill-rule:nonzero;stroke:none"
         transform="matrix(0.13333333,0,0,-0.13333333,0,666.66667)"
         clip-path="url(#clipPath50)" />
      <path
         id="path51"
         d="m 3092.44,3398.01 6.65,5.1 c 34.62,-48.39 76.25,-72.02 123.74,-70.25 35.39,1.33 60.81,16.95 61.06,17.1 l 4.3,-7.35 c -1.08,-0.68 -108.93,-65.93 -195.75,55.4"
         style="fill:#205e8e;fill-opacity:1;fill-rule:nonzero;stroke:none"
         transform="matrix(0.13333333,0,0,-0.13333333,0,666.66667)"
         clip-path="url(#clipPath52)" />
      <path
         id="path53"
         d="m 2506.13,2828.03 c -23.29,38.4 -12.2,88.97 24.78,112.95 36.98,23.97 85.85,12.27 109.15,-26.14 23.29,-38.4 12.2,-88.97 -24.78,-112.95 -36.98,-23.97 -85.85,-12.27 -109.15,26.14"
         style="fill:#040606;fill-opacity:1;fill-rule:nonzero;stroke:none"
         transform="matrix(0.13333333,0,0,-0.13333333,0,666.66667)" />
      <path
         id="path54"
         d="m 3063.69,3185.67 c 0,0 -214.73,-37.77 -521.88,-222.04 0,0 90.92,-262.09 446.88,-58.64 295.82,169.08 75,280.68 75,280.68"
         style="fill:#c8c4bd;fill-opacity:1;fill-rule:nonzero;stroke:none"
         transform="matrix(0.13333333,0,0,-0.13333333,0,666.66667)" />
      <path
         id="path55"
         d="m 2962.55,2896.54 c -59.92,-31 -109.52,-49.43 -150.68,-58.68 l 0.22,0.62 c 23.2,54.03 -14.65,136.25 -14.65,136.25 66,23.45 270.99,127.58 270.99,127.58 25.78,-45.75 23.33,-86.58 21.57,-100 -26.67,-37.36 -66.91,-74.43 -127.45,-105.77"
         style="fill:#949390;fill-opacity:1;fill-rule:nonzero;stroke:none"
         transform="matrix(0.13333333,0,0,-0.13333333,0,666.66667)" />
      <path
         id="path56"
         d="m 3329.45,3649.19 c -2.52,-21.12 -16.97,-36.61 -32.27,-34.59 -15.3,2.02 -25.66,20.78 -23.15,41.9 2.52,21.13 16.96,36.61 32.26,34.59 15.31,-2.02 25.67,-20.78 23.16,-41.9"
         style="fill:#205e8e;fill-opacity:1;fill-rule:nonzero;stroke:none"
         transform="matrix(0.13333333,0,0,-0.13333333,0,666.66667)" />
      <path
         id="path57"
         d="m 3517.13,3909.57 c 0,0 -106.17,0.29 -203.62,-71.99 -166.14,-123.24 -169.25,-236.76 -121.52,-502.47 40.3,-224.32 181.82,-495.48 231.83,-496.73 50.02,-1.25 -29.61,150.67 72.68,172.81 108.09,23.4 283.02,-155.86 357.71,-121.72 74.7,34.14 193.23,287.8 202.58,543.92 9.35,256.12 -74.69,585.52 -539.66,476.18"
         style="fill:#e5e2da;fill-opacity:1;fill-rule:nonzero;stroke:none"
         transform="matrix(0.13333333,0,0,-0.13333333,0,666.66667)" />
      <path
         id="path58"
         d="m 3379.92,3543.86 c -9.56,-49.44 -13.58,-96.86 -13.58,-141.65 0.04,-240.11 115.45,-404.67 115.74,-405.13 l 8.18,5.74 c 0,0 -0.4,0.58 -1.22,1.81 -12.33,18.4 -112.74,175.55 -112.7,397.58 0,44.19 3.97,90.97 13.39,139.76 l -9.81,1.89"
         style="fill:#949390;fill-opacity:1;fill-rule:nonzero;stroke:none"
         transform="matrix(0.13333333,0,0,-0.13333333,0,666.66667)" />
      <path
         id="path59"
         d="m 3290,3815.51 c 0,-0.04 -0.04,-1.59 -0.04,-4.46 0.01,-14.5 0.97,-62.42 12.8,-116.73 11.86,-54.28 34.47,-115.11 78.72,-155.12 l 2.14,-1.94 2.76,0.9 c 0.13,0.05 103.75,33.89 219.92,89.92 58.09,28.02 119.32,61.58 172.37,99.33 53.05,37.77 97.99,79.66 123.36,124.86 l -8.73,4.88 c -24.12,-43.11 -68.03,-84.34 -120.42,-121.59 -78.57,-55.92 -176.07,-102.97 -253.84,-135.96 -38.89,-16.49 -72.86,-29.49 -97.09,-38.35 -12.11,-4.43 -21.79,-7.83 -28.44,-10.12 -6.65,-2.29 -10.23,-3.46 -10.24,-3.46 l 1.56,-4.75 3.35,3.71 c -41.76,37.6 -64.08,96.56 -75.65,149.82 -11.6,53.23 -12.57,100.56 -12.57,114.6 0,2.78 0.04,4.21 0.04,4.21 l -10,0.25"
         style="fill:#949390;fill-opacity:1;fill-rule:nonzero;stroke:none"
         transform="matrix(0.13333333,0,0,-0.13333333,0,666.66667)" />
      <path
         id="path60"
         d="m 4054.36,3437.76 c -0.4,-0.23 -65.07,-36.17 -132.29,-121.45 -67.22,-85.25 -136.9,-219.93 -147.08,-416.96 l 9.98,-0.52 c 10.11,194.9 78.84,327.38 144.95,411.29 33.06,41.95 65.48,71.73 89.59,91 12.06,9.63 22.04,16.64 28.97,21.22 3.47,2.29 6.18,3.97 8.01,5.08 0.92,0.55 1.61,0.96 2.07,1.22 l 0.66,0.38 -4.86,8.74"
         style="fill:#949390;fill-opacity:1;fill-rule:nonzero;stroke:none"
         transform="matrix(0.13333333,0,0,-0.13333333,0,666.66667)" />
      <path
         id="path61"
         d="m 4434.46,2675.24 c 49.17,-55.94 67.54,-124.07 50.61,-196.59 -13.97,-59.84 -30.64,-127.74 -63.92,-161.47 -57.06,-57.86 -84.46,-57.52 -84.46,-57.52 -15.09,-15.59 -36.81,-22.89 -58.25,-19.58 l -6.96,1.07 c -49.5,-36 -50.87,20.21 -50.87,20.21 -19.43,-17.47 -48.53,-17.64 -44.87,19.9 5.41,55.51 74.19,209.01 74.19,209.01 0,0 -30.34,31.1 -48.36,9.4 -45.49,-54.77 -78.53,-46.22 -83.59,-40.22 -5.06,5.99 -5.88,6.8 10.89,46.77 16.19,38.62 43.98,82.2 71.49,99.2 64.24,39.7 121.01,172.48 216.43,87.64 6.33,-5.63 12.21,-11.61 17.67,-17.82"
         style="fill:#e5e2da;fill-opacity:1;fill-rule:nonzero;stroke:none"
         transform="matrix(0.13333333,0,0,-0.13333333,0,666.66667)" />
      <path
         id="path62"
         d="m 4321.32,2474.08 c -0.01,-0.03 -3.94,-11.01 -10.49,-28.11 -9.82,-25.64 -25.48,-64.93 -42.39,-101.06 -16.85,-36.08 -35.21,-69.15 -49.49,-81.68 l 3.31,-3.75 c 10.43,9.26 21.83,27.01 33.44,48.64 34.73,64.82 70.3,164.22 70.33,164.28 l -4.71,1.68"
         style="fill:#040606;fill-opacity:1;fill-rule:nonzero;stroke:none"
         transform="matrix(0.13333333,0,0,-0.13333333,0,666.66667)" />
      <path
         id="path63"
         d="m 4377.75,2437.39 c -0.01,-0.03 -4.61,-11.22 -12.08,-28.31 -11.2,-25.63 -28.81,-64.45 -46.83,-98.23 -9.01,-16.89 -18.12,-32.52 -26.54,-44.56 -8.35,-12.05 -16.27,-20.48 -21.83,-22.85 l 2.03,-4.58 c 4.97,2.24 10.03,6.95 15.5,13.48 19.01,22.79 42.45,68.43 61.34,108.55 18.85,40.1 33.02,74.58 33.03,74.6 l -4.62,1.9"
         style="fill:#040606;fill-opacity:1;fill-rule:nonzero;stroke:none"
         transform="matrix(0.13333333,0,0,-0.13333333,0,666.66667)" />
      <path
         id="path64"
         d="m 4338.61,2258.05 c 0.06,0.12 63.19,74.99 87.53,141.44 l -4.69,1.71 c -11.89,-32.53 -33.58,-67.59 -52.28,-94.44 -9.35,-13.43 -17.96,-24.81 -24.22,-32.83 -6.27,-8.03 -10.16,-12.65 -10.17,-12.67 l 3.83,-3.21"
         style="fill:#040606;fill-opacity:1;fill-rule:nonzero;stroke:none"
         transform="matrix(0.13333333,0,0,-0.13333333,0,666.66667)" />
      <path
         id="path65"
         d="m 4356.66,2390.17 c 12.78,-7.07 13.17,-30.81 0.87,-53.03 -12.3,-22.22 -32.62,-34.5 -45.4,-27.42 -12.78,7.07 -13.17,30.81 -0.87,53.03 12.29,22.22 32.62,34.5 45.4,27.42"
         style="fill:#c8c4bd;fill-opacity:1;fill-rule:nonzero;stroke:none"
         transform="matrix(0.13333333,0,0,-0.13333333,0,666.66667)" />
      <path
         id="path66"
         d="m 4401.38,2364.91 c 9.25,-5.12 7.79,-25.47 -3.27,-45.45 -11.06,-19.98 -27.52,-32.03 -36.78,-26.91 -9.25,5.12 -7.78,25.47 3.27,45.45 11.06,19.98 27.53,32.03 36.78,26.91"
         style="fill:#c8c4bd;fill-opacity:1;fill-rule:nonzero;stroke:none"
         transform="matrix(0.13333333,0,0,-0.13333333,0,666.66667)" />
      <path
         id="path67"
         d="m 4442.15,2345.98 c 6.22,-4.54 1.87,-21.11 -9.72,-37.02 -11.6,-15.91 -26.04,-25.13 -32.27,-20.59 -6.23,4.54 -1.87,21.11 9.72,37.02 11.6,15.91 26.04,25.13 32.27,20.59"
         style="fill:#c8c4bd;fill-opacity:1;fill-rule:nonzero;stroke:none"
         transform="matrix(0.13333333,0,0,-0.13333333,0,666.66667)" />
      <path
         id="path68"
         d="m 4302.35,2417.48 c 13.9,-7.69 15.2,-31.94 2.9,-54.16 -12.3,-22.21 -33.53,-33.99 -47.43,-26.3 -13.9,7.7 -15.2,31.94 -2.91,54.16 12.3,22.22 33.54,33.99 47.44,26.3"
         style="fill:#c8c4bd;fill-opacity:1;fill-rule:nonzero;stroke:none"
         transform="matrix(0.13333333,0,0,-0.13333333,0,666.66667)" />
      <path
         id="path69"
         d="m 4200.98,2595.15 c 13.9,-7.69 15.2,-31.94 2.9,-54.15 -12.3,-22.22 -33.53,-34 -47.43,-26.3 -13.9,7.69 -15.2,31.94 -2.91,54.15 12.3,22.22 33.54,34 47.44,26.3"
         style="fill:#c8c4bd;fill-opacity:1;fill-rule:nonzero;stroke:none"
         transform="matrix(0.13333333,0,0,-0.13333333,0,666.66667)" />
      <path
         id="path70"
         d="m 3905.81,3611.46 c -74.92,7.4 -129.66,74.15 -122.26,149.07 7.41,74.93 74.15,129.66 149.07,122.26 74.93,-7.4 129.67,-74.14 122.26,-149.07 -7.4,-74.92 -74.14,-129.66 -149.07,-122.26"
         style="fill:#040606;fill-opacity:1;fill-rule:nonzero;stroke:none"
         transform="matrix(0.13333333,0,0,-0.13333333,0,666.66667)" />
      <path
         id="path71"
         d="m 4053.59,3754.17 c 0,0 227.2,-71.86 430.87,-370.68 l -101.39,-64.45 c 0,0 -270.33,273.36 -439.63,332.08 l 110.15,103.05"
         style="fill:#040606;fill-opacity:1;fill-rule:nonzero;stroke:none"
         transform="matrix(0.13333333,0,0,-0.13333333,0,666.66667)" />
      <path
         id="path72"
         d="m 4230.96,3418.69 -2.3,9.25 c 153.96,38.25 136.5,168.29 135.68,173.8 l 9.43,1.42 c 0.22,-1.44 19.72,-144.1 -142.81,-184.47"
         style="fill:#205e8e;fill-opacity:1;fill-rule:nonzero;stroke:none"
         transform="matrix(0.13333333,0,0,-0.13333333,0,666.66667)"
         clip-path="url(#clipPath73)" />
      <path
         id="path74"
         d="m 4109.57,3489.69 -2.3,9.25 c 64.82,16.1 107.34,50.25 126.39,101.52 14.19,38.21 9.35,71.94 9.3,72.27 l 9.43,1.42 c 0.22,-1.44 19.71,-144.1 -142.82,-184.46"
         style="fill:#205e8e;fill-opacity:1;fill-rule:nonzero;stroke:none"
         transform="matrix(0.13333333,0,0,-0.13333333,0,666.66667)"
         clip-path="url(#clipPath75)" />
      <path
         id="path76"
         d="m 4436.18,2621.84 c -49.6,-8.32 -96.56,25.14 -104.89,74.75 -8.32,49.61 25.15,96.57 74.76,104.89 49.6,8.33 96.57,-25.14 104.89,-74.75 8.32,-49.61 -25.15,-96.57 -74.76,-104.89"
         style="fill:#040606;fill-opacity:1;fill-rule:nonzero;stroke:none"
         transform="matrix(0.13333333,0,0,-0.13333333,0,666.66667)" />
      <path
         id="path77"
         d="m 4507.75,3400.03 c 0,0 65.79,-239.14 28.96,-648.86 0,0 -307.38,-43.19 -274.86,426.39 27.03,390.24 245.9,222.47 245.9,222.47"
         style="fill:#e5e2da;fill-opacity:1;fill-rule:nonzero;stroke:none"
         transform="matrix(0.13333333,0,0,-0.13333333,0,666.66667)" />
      <path
         id="path78"
         d="m 4265.99,3146.44 c -2.22,-77.36 3.22,-137.64 13.81,-184.52 l 0.52,0.55 c 43.1,51.79 144.04,55.8 144.04,55.8 -8.31,79.65 -2.69,343.3 -2.69,343.3 -58.45,2.59 -98.3,-21.12 -110.95,-29.89 -24.67,-46.67 -42.49,-107.07 -44.73,-185.24"
         style="fill:#c8c4bd;fill-opacity:1;fill-rule:nonzero;stroke:none"
         transform="matrix(0.13333333,0,0,-0.13333333,0,666.66667)" />
      <path
         id="path79"
         d="m 3956.25,3849.41 c 20.55,-11.73 30.07,-33.73 21.28,-49.14 -8.8,-15.41 -32.58,-18.4 -53.13,-6.67 -20.55,11.73 -30.07,33.73 -21.28,49.14 8.8,15.41 32.58,18.39 53.13,6.67"
         style="fill:#205e8e;fill-opacity:1;fill-rule:nonzero;stroke:none"
         transform="matrix(0.13333333,0,0,-0.13333333,0,666.66667)" />
      <path
         id="path80"
         d="m 3376.05,4245.55 69.82,-397.07 c -34.91,-112.96 -17.46,-145.92 -17.46,-145.92 62.9,-8.62 200.91,112.11 242.41,162.89 0,0 -125.61,300.19 -87.94,458.15 l -206.83,-78.05"
         style="fill:#040606;fill-opacity:1;fill-rule:nonzero;stroke:none"
         transform="matrix(0.13333333,0,0,-0.13333333,0,666.66667)" />
      <path
         id="path81"
         d="m 3306.06,3357.29 c 2.61,-59.76 31.36,-106.99 64.23,-105.5 32.87,1.49 57.41,51.14 54.8,110.9 -2.6,59.76 -31.36,106.99 -64.23,105.5 -32.86,-1.49 -57.4,-51.15 -54.8,-110.9"
         style="fill:#b9b6b0;fill-opacity:1;fill-rule:nonzero;stroke:none"
         transform="matrix(0.13333333,0,0,-0.13333333,0,666.66667)" />
      <path
         id="path82"
         d="m 3424.18,3362.61 c 1.96,-44.92 -11.42,-84.12 -32.15,-101.46 -20.62,16.64 -35.95,52.92 -37.82,95.75 -1.96,44.92 11.43,84.13 32.16,101.46 20.62,-16.64 35.95,-52.92 37.81,-95.75"
         style="fill:#63afe4;fill-opacity:1;fill-rule:nonzero;stroke:none"
         transform="matrix(0.13333333,0,0,-0.13333333,0,666.66667)" />
      <path
         id="path83"
         d="m 3052.99,4062.18 -28.87,209.64 c -7.63,55.41 -2.7,112.21 17.22,164.48 23.82,62.52 69.09,126.48 165.04,142.86 0,0 70.79,8.88 117.66,14.76 34.04,4.27 68.69,3.63 102.15,-3.96 59.45,-13.49 111.77,-41.36 152.01,-93.19 42.65,-54.95 79.06,-130.6 77.48,-201.4 -0.82,-36.79 -10.06,-94.61 -37.09,-122.37 l -61.48,-63.15 c -56.3,-158.96 -36.92,-179.8 -182.42,-217.89 -9.19,-2.41 -18.49,-4.43 -27.83,-6.18 l -74,-8.1 c -95.47,-0.75 -209.26,59.47 -219.87,184.5"
         style="fill:#c8c4bd;fill-opacity:1;fill-rule:nonzero;stroke:none"
         transform="matrix(0.13333333,0,0,-0.13333333,0,666.66667)" />
      <path
         id="path84"
         d="m 3420.93,4499.04 c -113.66,92.77 -289.3,43.14 -352.73,-9.32 -11.19,-17.15 -19.97,-35.33 -26.86,-53.42 -19.92,-52.27 -24.85,-109.07 -17.22,-164.48 l 29.64,-186.29 c 21.65,-102.66 73.88,-149.67 156.19,-156.1 13.44,-1.05 26.98,-0.1 40.32,1.94 l 96.31,14.75 c 33.52,5.14 63.42,24.69 80.41,54.03 63.93,110.43 130.59,387.35 -6.06,498.89"
         style="fill:#e5e2da;fill-opacity:1;fill-rule:nonzero;stroke:none"
         transform="matrix(0.13333333,0,0,-0.13333333,0,666.66667)" />
      <path
         id="path85"
         d="M 3058.05,4160.28 3046,4307.61 c -5.75,67.73 42.51,148.07 112.51,154.38 l 64.37,5.8 c 93.91,8.47 177.07,-58.95 184.78,-149.83 l 12.6,-148.38 c 7.71,-90.88 -62.81,-172.15 -156.73,-180.62 l -43.76,-3.94 c -23.41,-2.11 -47.33,0.97 -68.49,11.21 -64.35,31.14 -88.51,108.41 -93.23,164.05"
         style="fill:#040606;fill-opacity:1;fill-rule:nonzero;stroke:none"
         transform="matrix(0.13333333,0,0,-0.13333333,0,666.66667)" />
      <path
         id="path86"
         d="m 3244.77,4448.48 -95.89,-8.64 c -58.72,-5.3 -101.89,-67.05 -95.93,-137.23 l 4.09,-48.11 c 0.32,-3.8 0.85,-7.53 1.53,-11.19 0.15,64.53 41.49,118.98 96.47,123.94 l 95.89,8.64 c 54.98,4.96 104.87,-41.27 115.89,-104.79 0.06,3.72 -0.05,7.49 -0.37,11.3 l -4.09,48.1 c -5.95,70.18 -58.87,123.27 -117.59,117.98"
         style="fill:#205e8e;fill-opacity:1;fill-rule:nonzero;stroke:none"
         transform="matrix(0.13333333,0,0,-0.13333333,0,666.66667)" />
      <path
         id="path87"
         d="m 3289.6,4447.48 c 19.44,-11.65 31.69,-27.52 27.37,-35.44 -4.33,-7.93 -23.6,-4.92 -43.04,6.73 -19.44,11.64 -31.69,27.51 -27.36,35.44 4.32,7.93 23.59,4.92 43.03,-6.73"
         style="fill:#ecebe7;fill-opacity:1;fill-rule:nonzero;stroke:none"
         transform="matrix(0.13333333,0,0,-0.13333333,0,666.66667)" />
      <path
         id="path88"
         d="m 3542.82,4245.39 125.5,10.74 c 17.24,0.71 33.16,-30.59 35.58,-69.9 2.41,-39.3 -9.6,-71.73 -26.83,-72.44 l -125.51,-10.74 c -17.23,-0.7 -33.16,30.59 -35.57,69.9 -2.41,39.3 9.6,71.74 26.83,72.44"
         style="fill:#e5e2da;fill-opacity:1;fill-rule:nonzero;stroke:none"
         transform="matrix(0.13333333,0,0,-0.13333333,0,666.66667)" />
      <path
         id="path89"
         d="m 3648.89,4184.17 c 2.15,-34.28 14.55,-61.72 27.7,-61.28 13.14,0.43 22.06,28.58 19.91,62.86 -2.15,34.29 -14.55,61.72 -27.7,61.28 -13.14,-0.44 -22.06,-28.58 -19.91,-62.86"
         style="fill:#63afe4;fill-opacity:1;fill-rule:nonzero;stroke:none"
         transform="matrix(0.13333333,0,0,-0.13333333,0,666.66667)" />
      <path
         id="path90"
         d="m 3673.81,4182.45 c 1.24,-20.93 -2.75,-39.65 -9.86,-51.29 -7.68,10.58 -13.63,30.26 -15.06,53.01 -1.3,20.85 1.5,39.38 6.84,50.84 9.55,-10.39 16.72,-29.88 18.08,-52.56"
         style="fill:#176ba9;fill-opacity:1;fill-rule:nonzero;stroke:none"
         transform="matrix(0.13333333,0,0,-0.13333333,0,666.66667)" />
      <path
         id="path91"
         d="m 3651.59,4249.37 -115.81,-12.73 -4.45,-14.44 111.14,12.32 9.12,14.85"
         style="fill:#ecebe7;fill-opacity:1;fill-rule:nonzero;stroke:none"
         transform="matrix(0.13333333,0,0,-0.13333333,0,666.66667)" />
      <path
         id="path92"
         d="m 3306.24,4205.91 -2.32,30.94 c -1.31,17.4 -6.78,32.92 -14.92,44.39 -8.1,11.4 -19.21,19.07 -31.76,19.1 -0.99,0 -1.98,-0.04 -2.98,-0.14 -12.17,-1.24 -22.16,-9.55 -28.9,-21.06 -6.78,-11.57 -10.66,-26.66 -10.67,-43.08 0,-2.57 0.1,-5.17 0.29,-7.8 v 0 l 2.56,-34.15 9.98,0.75 -2.56,34.15 v 0 c -0.18,2.38 -0.27,4.73 -0.27,7.05 -0.01,14.83 3.58,28.32 9.29,38.01 5.76,9.76 13.3,15.41 21.27,16.18 l 1.99,0.09 c 8.18,0.04 16.67,-5.16 23.61,-14.9 6.91,-9.68 11.93,-23.59 13.1,-39.34 l 2.32,-30.94 9.97,0.75"
         style="fill:#63afe4;fill-opacity:1;fill-rule:nonzero;stroke:none"
         transform="matrix(0.13333333,0,0,-0.13333333,0,666.66667)" />
      <path
         id="path93"
         d="m 3147.29,4188.51 -3.55,47.5 c -1.03,13.74 -5.44,26.02 -12.09,35.13 -6.6,9.07 -15.78,15.24 -26.19,15.27 l -2.54,-0.12 -2.76,-0.28 c -10.14,-1.02 -18.44,-7.78 -23.99,-17 -5.6,-9.27 -8.77,-21.28 -8.78,-34.31 0,-1.97 0.08,-3.96 0.23,-5.97 l 3.55,-47.57 9.97,0.75 -3.55,47.56 v 0 c -0.13,1.76 -0.2,3.51 -0.2,5.23 -0.01,11.39 2.85,21.75 7.33,29.14 4.53,7.45 10.36,11.64 16.42,12.22 l 2.77,0.28 1.55,0.07 c 6.2,0.03 12.71,-3.78 18.12,-11.16 5.37,-7.33 9.3,-17.94 10.19,-29.98 l 3.55,-47.51 9.98,0.75"
         style="fill:#63afe4;fill-opacity:1;fill-rule:nonzero;stroke:none"
         transform="matrix(0.13333333,0,0,-0.13333333,0,666.66667)" />
      <path
         id="path94"
         d="m 3237.18,4150.32 c 2.99,-26.25 -13.81,-49.62 -37.33,-51.94 -23.52,-2.32 -45.22,17.25 -48.21,43.5 l 85.54,8.44"
         style="fill:#63afe4;fill-opacity:1;fill-rule:nonzero;stroke:none"
         transform="matrix(0.13333333,0,0,-0.13333333,0,666.66667)" />
      <path
         id="path95"
         d="m 4235.08,559.672 c 0,0 -332.5,-106.16 -386.51,-180.18 -54.02,-74.012 160.31,-45.98 299.67,-34.191 129.44,10.949 320.81,44.66 320.81,44.66 0,0 28.45,132.289 -64.35,214.859 0,0 -22.72,-118.601 -169.62,-45.148"
         style="fill:#e5e2da;fill-opacity:1;fill-rule:nonzero;stroke:none"
         transform="matrix(0.13333333,0,0,-0.13333333,0,666.66667)" />
      <path
         id="path96"
         d="m 3659.14,1259.95 c -0.71,-0.52 -64.65,-54.71 -64.63,-179.26 0,-50.18 10.37,-111.69 39.24,-185.588 l 9.31,3.636 c -28.48,72.91 -38.55,133.152 -38.55,181.952 0.01,60.51 15.46,103.47 30.8,131.33 7.67,13.92 15.32,24.07 21.01,30.69 2.85,3.31 5.2,5.75 6.83,7.33 l 1.85,1.75 0.45,0.41 0.11,0.09 -6.42,7.66"
         style="fill:#949390;fill-opacity:1;fill-rule:nonzero;stroke:none"
         transform="matrix(0.13333333,0,0,-0.13333333,0,666.66667)" />
      <path
         id="path97"
         d="m 4370.07,1292.41 c -0.56,-0.57 -54.57,-58.2 -54.56,-174.77 -0.01,-67.7 18.22,-155.109 75.34,-262.468 l 8.83,4.687 c -56.48,106.18 -74.17,191.891 -74.17,257.781 0,56.7 13.1,98.77 26.13,126.66 6.51,13.94 13.01,24.33 17.85,31.19 2.41,3.43 4.41,5.99 5.79,7.66 l 1.58,1.85 0.39,0.44 0.1,0.11 -7.27,6.86"
         style="fill:#949390;fill-opacity:1;fill-rule:nonzero;stroke:none"
         transform="matrix(0.13333333,0,0,-0.13333333,0,666.66667)" />
      <path
         id="path98"
         d="m 3498.41,1531.1 -0.1,-0.75 c -0.52,-3.89 -3.39,-22.4 -11.76,-42.42 -8.36,-20.07 -22.17,-41.32 -43.88,-51.69 l 4.33,-9.02 c 26.73,12.9 41.83,38.82 50.47,61.08 8.64,22.33 10.83,41.39 10.87,41.65 l -9.93,1.14"
         style="fill:#949390;fill-opacity:1;fill-rule:nonzero;stroke:none"
         transform="matrix(0.13333333,0,0,-0.13333333,0,666.66667)" />
      <path
         id="path99"
         d="m 4136.9,1444.01 v -0.2 c 0,-0.54 -0.07,-19.11 -5.74,-40.83 -5.66,-21.79 -16.94,-46.38 -38.39,-59.94 l 5.36,-8.44 c 24.74,15.79 36.69,42.89 42.7,65.85 6,23.03 6.06,42.29 6.07,43.36 h -4.23 l 4.22,-0.15 0.01,0.15 h -4.23 l 4.22,-0.15 -9.99,0.35"
         style="fill:#949390;fill-opacity:1;fill-rule:nonzero;stroke:none"
         transform="matrix(0.13333333,0,0,-0.13333333,0,666.66667)" />
      <path
         id="path100"
         d="m 4148.24,345.301 c 129.44,10.949 320.81,44.66 320.81,44.66 0,0 16.96,96.418 -30.67,175.871 -146.9,-80.793 -118.02,-141.543 -320.81,-177.703 -189.5,-33.789 -240.92,13.223 -240.92,13.223 l -5.82,0.07 c -9.47,-7.492 -17.09,-14.84 -22.26,-21.93 -54.02,-74.012 160.31,-45.98 299.67,-34.191"
         style="fill:#040606;fill-opacity:1;fill-rule:nonzero;stroke:none"
         transform="matrix(0.13333333,0,0,-0.13333333,0,666.66667)" />
      <path
         id="path101"
         d="m 3713.22,496.59 c 0,0 1.68,74.812 -29.67,143.019 l -2.49,-1.117 c -130.46,-52.883 -95.97,-105.101 -271.15,-134.703 -202.13,-34.148 -264.73,8.109 -275.09,13.293 -8.67,-6.453 -15.64,-12.793 -20.37,-18.934 -51.98,-67.566 145.35,-61.867 279.82,-53.476 124.89,7.797 318.95,51.918 318.95,51.918"
         style="fill:#040606;fill-opacity:1;fill-rule:nonzero;stroke:none"
         transform="matrix(0.13333333,0,0,-0.13333333,0,666.66667)" />
      <path
         id="path102"
         d="m 3921.2,2583.75 c -0.44,-0.1 -42.57,-7.59 -86.75,-38.82 -44.19,-31.16 -90.31,-86.57 -97.39,-180.91 -1.89,-24.86 -9,-41.52 -19,-51.92 -10.02,-10.37 -23.18,-15.03 -38.82,-15.06 -21.15,-0.04 -46.49,8.94 -71.01,24.14 -24.53,15.17 -48.26,36.46 -66.61,60.5 -24.71,32.33 -42.39,72.02 -53.79,103.57 -5.71,15.77 -9.86,29.51 -12.58,39.29 -1.35,4.89 -2.35,8.78 -3.01,11.45 -0.66,2.67 -0.97,4.06 -0.97,4.06 l -9.76,-2.16 c 0.12,-0.32 20.9,-95.04 72.16,-162.28 19.15,-25.07 43.68,-47.08 69.3,-62.94 25.63,-15.83 52.34,-25.6 76.27,-25.63 17.61,-0.04 33.92,5.51 46.02,18.13 12.12,12.61 19.78,31.75 21.77,58.09 6.99,91.31 50.88,143.49 93.19,173.51 21.16,14.97 41.94,24.28 57.39,29.83 7.73,2.78 14.11,4.61 18.54,5.75 2.22,0.57 3.95,0.96 5.1,1.21 l 1.31,0.27 0.39,0.07 -1.75,9.85"
         style="fill:#949390;fill-opacity:1;fill-rule:nonzero;stroke:none"
         transform="matrix(0.13333333,0,0,-0.13333333,0,666.66667)" />
      <path
         id="path103"
         d="m 1237.37,1476.58 c 0,0 -301.725,-367.43 -541.253,-553.08 0,0 -65.562,-303.141 -106.789,-343.129 -41.226,-39.992 -58.367,-81.461 -73.273,50.527 -14.907,131.981 -48.957,314.672 -37.328,332.973 11.628,18.301 61.808,61.489 133.945,63.059 l 381.293,579.66 243.405,-130.01"
         style="fill:#f8a19c;fill-opacity:1;fill-rule:nonzero;stroke:none"
         transform="matrix(0.13333333,0,0,-0.13333333,0,666.66667)" />
      <path
         id="path104"
         d="m 1490.96,1430.99 c 0,0 1.51,-207.46 10.67,-351.6 9.15,-144.14 -2.81,-376.949 -26.18,-454.64 -15.89,-52.859 -7.83,-192.629 -7.83,-192.629 0,0 141.27,3.078 186.81,-16.98 45.55,-20.051 256.46,-15.961 298.08,6 41.62,21.961 46.66,43.621 -89.71,91.769 -136.37,48.141 -234.39,130.211 -234.39,130.211 0,0 186.12,704.709 209.57,870.609 l -347.02,-82.74"
         style="fill:#f8a19c;fill-opacity:1;fill-rule:nonzero;stroke:none"
         transform="matrix(0.13333333,0,0,-0.13333333,0,666.66667)" />
      <path
         id="path105"
         d="m 1198.95,2254.83 c 0,0 -93.56,-415.95 -251.563,-699.9 0,0 177.513,-200.13 366.673,-186.99 l 178.9,384.85 -10.3,-355.06 c 0,0 188.26,-80.16 384.26,30.16 0,0 80.1,737.33 -9.5,984.96 l -658.47,-158.02"
         style="fill:#63afe4;fill-opacity:1;fill-rule:nonzero;stroke:none"
         transform="matrix(0.13333333,0,0,-0.13333333,0,666.66667)" />
      <path
         id="path106"
         d="m 1895.06,2183.92 c -0.16,2.51 -0.32,5.03 -0.49,7.52 0.26,-2.44 0.51,-4.9 0.76,-7.38 -0.09,-0.04 -0.18,-0.09 -0.27,-0.14 m -713.39,0.74 c -6.2,2.66 -12.29,5.31 -18.3,7.95 25.69,68.28 48.05,128.12 64.3,171.77 l 166.39,70.8 463.36,-22.33 -658.47,-158.02 c 0,0 -5.92,-26.3 -17.28,-70.17"
         style="fill:#1c5284;fill-opacity:1;fill-rule:nonzero;stroke:none"
         transform="matrix(0.13333333,0,0,-0.13333333,0,666.66667)" />
      <path
         id="path107"
         d="m 1555.71,2096.25 c -146.04,0 -272.7,44.95 -374.04,88.41 11.36,43.87 17.28,70.17 17.28,70.17 l 658.47,158.02 c 11.5,-59.13 27.27,-127.91 37.15,-221.41 0.17,-2.49 0.33,-5.01 0.49,-7.52 -3.8,-2.03 -13.75,-9.43 -17.37,-11.19 -115.01,-55.81 -222.95,-76.48 -321.98,-76.48"
         style="fill:#4f94d4;fill-opacity:1;fill-rule:nonzero;stroke:none"
         transform="matrix(0.13333333,0,0,-0.13333333,0,666.66667)" />
      <path
         id="path108"
         d="m 1291.41,2293.03 c 0,-0.01 -0.47,-5.46 -1.81,-15.93 -9.43,-73.31 -61.83,-390.39 -295.565,-760.82 l 4.227,-2.67 c 267.708,424.29 298.108,778.73 298.128,778.99 l -4.98,0.43"
         style="fill:#040606;fill-opacity:1;fill-rule:nonzero;stroke:none"
         transform="matrix(0.13333333,0,0,-0.13333333,0,666.66667)" />
      <path
         id="path109"
         d="m 1494.92,1751.24 116.82,147.59 134.02,90.92 -2.81,4.14 -134.65,-91.35 -117.3,-148.2 3.92,-3.1"
         style="fill:#040606;fill-opacity:1;fill-rule:nonzero;stroke:none"
         transform="matrix(0.13333333,0,0,-0.13333333,0,666.66667)" />
      <path
         id="path110"
         d="m 1378.27,2305.27 c 0,-0.01 -0.91,-3.56 -2.66,-9.83 -6.12,-21.95 -22.41,-76.97 -44.75,-126.74 -11.17,-24.88 -23.87,-48.45 -37.44,-65.84 -13.59,-17.45 -27.99,-28.43 -42.08,-29.07 l 0.25,-5 c 18.95,1.06 36.1,16.79 51.69,39.02 46.62,66.83 79.77,196.09 79.84,196.22 l -4.85,1.24"
         style="fill:#040606;fill-opacity:1;fill-rule:nonzero;stroke:none"
         transform="matrix(0.13333333,0,0,-0.13333333,0,666.66667)" />
      <path
         id="path111"
         d="m 1659.04,2298.23 c 0,-0.02 0.91,-4.32 2.29,-12.14 4.13,-23.45 12.41,-78.22 12.4,-140.35 0.01,-33.46 -2.39,-69.04 -9.1,-103 l -0.89,-4.48 4.25,1.67 c 0.16,0.12 19.19,7.4 28.72,19.43 1.12,1.49 1.93,3.52 2.91,6.46 6.58,20.17 16.33,82.08 16.36,143.49 -0.01,33.56 -2.93,66.88 -11.07,93.07 l -4.78,-1.48 c 7.91,-25.37 10.86,-58.33 10.85,-91.59 0,-34.76 -3.19,-69.87 -7.12,-97.18 -1.96,-13.66 -4.11,-25.37 -6.13,-34.09 -1,-4.36 -1.97,-7.97 -2.86,-10.67 -0.85,-2.67 -1.74,-4.52 -2.1,-4.93 -4.01,-5.15 -10.71,-9.72 -16.38,-12.88 -2.83,-1.59 -5.41,-2.84 -7.26,-3.69 -1.86,-0.85 -2.96,-1.28 -2.97,-1.28 l 0.92,-2.33 2.45,-0.49 c 6.79,34.39 9.2,70.27 9.2,103.97 0,83.42 -14.78,153.42 -14.8,153.52 l -4.89,-1.03"
         style="fill:#040606;fill-opacity:1;fill-rule:nonzero;stroke:none"
         transform="matrix(0.13333333,0,0,-0.13333333,0,666.66667)" />
      <path
         id="path112"
         d="m 1562.53,3381.24 6.36,-61.33 c 0,0 -141.21,9.89 -204.86,26.96 l -12.51,213.42 306.46,-146.52 -81.71,-14.35 c -8.65,-1.52 -14.64,-9.46 -13.74,-18.18"
         style="fill:#f8a19c;fill-opacity:1;fill-rule:nonzero;stroke:none"
         transform="matrix(0.13333333,0,0,-0.13333333,0,666.66667)" />
      <path
         id="path113"
         d="M 1158.39,3016.77 1127.35,2247 c 0,0 530.89,-230.27 833.62,44.97 0,0 -37.8,410.35 -89.34,567.6 -51.54,157.25 -86.02,385.69 -287.29,494.99 0,0 -105.13,-21.11 -230.68,36.3 0,0 -197.81,-73.43 -195.27,-374.09"
         style="fill:#efefed;fill-opacity:1;fill-rule:nonzero;stroke:none"
         transform="matrix(0.13333333,0,0,-0.13333333,0,666.66667)" />
      <path
         id="path114"
         d="m 1477.32,632.57 c 0,0 32.91,-130.32 166.22,-37.191 l -45.61,22.641 c 0,0 -6.86,19.179 63.57,40.05 l 29.81,-36.949 c 0,0 245.26,-84.93 319.13,-149.422 20.5,-17.89 15.13,-50.847 -9.79,-61.777 -32.57,-14.281 -94.29,-28.973 -206.52,-21.781 -147.24,9.441 -261.76,12.609 -311.97,13.621 -16.08,0.328 -29.08,12.867 -30.12,28.918 -3.24,50.129 -5.53,153.422 25.28,201.89"
         style="fill:#498fd1;fill-opacity:1;fill-rule:nonzero;stroke:none"
         transform="matrix(0.13333333,0,0,-0.13333333,0,666.66667)" />
      <path
         id="path115"
         d="m 1794.13,388.141 c 112.23,-7.192 173.95,7.488 206.52,21.781 24.92,10.93 30.29,43.879 9.79,61.777 -17.58,15.34 -43.61,31.199 -73.01,46.461 -45.05,-5.43 -76.78,-101.988 -76.78,-101.988 -74.61,-6.961 -317.83,16.168 -409.15,23.629 0.18,-3.18 0.36,-6.262 0.54,-9.121 1.04,-16.051 14.04,-28.59 30.12,-28.91 50.21,-1.02 164.73,-4.188 311.97,-13.629"
         style="fill:#fef5f3;fill-opacity:1;fill-rule:nonzero;stroke:none"
         transform="matrix(0.13333333,0,0,-0.13333333,0,666.66667)" />
      <path
         id="path116"
         d="m 1825.43,516.91 c -22.92,16.68 -170.3,51.871 -170.3,51.871 7.4,27.16 48.29,43.871 53.89,46.039 31.26,-11.289 99.19,-36.601 164.73,-66.05 -0.28,0.019 -0.56,0.031 -0.84,0.031 -18.48,0 -47.48,-31.891 -47.48,-31.891"
         style="fill:#3e76a9;fill-opacity:1;fill-rule:nonzero;stroke:none"
         transform="matrix(0.13333333,0,0,-0.13333333,0,666.66667)" />
      <path
         id="path117"
         d="m 1661.18,566.441 113.94,19.27 3.61,-49.27 0.96,-1.793 1.97,-0.488 86.13,15.031 c 1.36,0.239 2.27,1.539 2.04,2.899 -0.24,1.359 -1.54,2.269 -2.9,2.031 l -83.41,-14.562 -3.62,49.25 -0.95,1.793 -1.96,0.5 -116.64,-19.731 c -1.37,-0.23 -2.28,-1.519 -2.05,-2.879 0.23,-1.371 1.52,-2.281 2.88,-2.051"
         style="fill:#040606;fill-opacity:1;fill-rule:nonzero;stroke:none"
         transform="matrix(0.13333333,0,0,-0.13333333,0,666.66667)" />
      <path
         id="path118"
         d="m 1706.61,614.16 17.09,-62.75 c 0.34,-1.23 1.54,-2.012 2.8,-1.808 l 95.64,15.117 0.79,-47.848 c 0.02,-1.379 1.16,-2.48 2.54,-2.461 1.38,0.02 2.48,1.16 2.46,2.539 l -0.84,50.731 -0.89,1.871 -2,0.558 -96.26,-15.218 -16.51,60.589 c -0.36,1.329 -1.73,2.122 -3.06,1.75 -1.34,-0.359 -2.12,-1.73 -1.76,-3.07"
         style="fill:#040606;fill-opacity:1;fill-rule:nonzero;stroke:none"
         transform="matrix(0.13333333,0,0,-0.13333333,0,666.66667)" />
      <path
         id="path119"
         d="m 628.918,1050.7 c 0,0 -35.199,-61.419 31.801,-165.38 l 16.492,49.739 c 0,0 50.566,-35.649 44.285,-76.758 L 698.41,852.27 c 0,0 -55.762,-274.11 -110.84,-358.688 -15.285,-23.473 -49.64,-22.75 -64.371,1.066 -19.254,31.133 -43.121,91.922 -51.969,207.321 -11.605,151.422 -24.882,268.582 -31.085,319.901 -1.989,16.43 8.921,31.49 25.128,34.86 50.618,10.53 109.809,18.38 163.645,-6.03"
         style="fill:#498fd1;fill-opacity:1;fill-rule:nonzero;stroke:none"
         transform="matrix(0.13333333,0,0,-0.13333333,0,666.66667)" />
      <path
         id="path120"
         d="m 471.234,701.969 c 8.844,-115.399 32.711,-176.188 51.965,-207.321 14.731,-23.816 49.086,-24.539 64.371,-1.066 13.106,20.117 25.508,48.938 36.825,81.098 -12.032,45.129 -115.004,63.539 -115.004,63.539 -17.856,75.043 -29.34,326.242 -34.907,420.371 -3.218,-0.64 -6.324,-1.26 -9.211,-1.86 -16.207,-3.37 -27.117,-18.43 -25.128,-34.86 6.203,-51.319 19.48,-168.479 31.089,-319.901"
         style="fill:#fef5f3;fill-opacity:1;fill-rule:nonzero;stroke:none"
         transform="matrix(0.13333333,0,0,-0.13333333,0,666.66667)" />
      <path
         id="path121"
         d="m 646.41,643.988 c -1.629,18.934 -39.441,44.653 -39.441,44.653 13.699,25.757 28.312,181.031 28.312,181.031 28.75,-3.633 51.668,-42.891 54.692,-48.293 -7,-33.481 -23.004,-106.359 -43.563,-177.391"
         style="fill:#3e76a9;fill-opacity:1;fill-rule:nonzero;stroke:none"
         transform="matrix(0.13333333,0,0,-0.13333333,0,666.66667)" />
      <path
         id="path122"
         d="m 633.84,863.191 36.086,-113.41 -52.469,-11.39 28.59,-88.25 c 0.426,-1.309 1.836,-2.032 3.148,-1.61 1.317,0.43 2.035,1.84 1.61,3.149 l -26.887,82.992 52.437,11.387 -37.753,118.64 c -0.418,1.321 -1.825,2.051 -3.141,1.633 -1.313,-0.422 -2.043,-1.832 -1.621,-3.141"
         style="fill:#040606;fill-opacity:1;fill-rule:nonzero;stroke:none"
         transform="matrix(0.13333333,0,0,-0.13333333,0,666.66667)" />
      <path
         id="path123"
         d="m 688.984,823.68 -63.546,-27.348 29.878,-97.5 -48.738,-7.723 c -1.363,-0.211 -2.293,-1.488 -2.078,-2.859 0.215,-1.359 1.496,-2.289 2.859,-2.078 l 54.426,8.617 -30.254,98.723 59.43,25.578 c 1.269,0.539 1.852,2.012 1.309,3.281 -0.547,1.27 -2.016,1.859 -3.286,1.309"
         style="fill:#040606;fill-opacity:1;fill-rule:nonzero;stroke:none"
         transform="matrix(0.13333333,0,0,-0.13333333,0,666.66667)" />
      <path
         id="path124"
         d="m 554.371,1063.26 c 0,0 0.281,-1.1 0.723,-3.23 1.316,-6.38 3.976,-21.71 3.976,-41.26 0.004,-20.989 -3.07,-46.829 -14.07,-71.7 -11.008,-24.879 -29.867,-48.82 -61.727,-66.32 l 2.407,-4.379 c 32.843,18.02 52.531,42.949 63.894,68.68 11.371,25.738 14.492,52.25 14.496,73.719 -0.004,26.67 -4.82,45.59 -4.851,45.73 l -4.848,-1.24"
         style="fill:#040606;fill-opacity:1;fill-rule:nonzero;stroke:none"
         transform="matrix(0.13333333,0,0,-0.13333333,0,666.66667)" />
      <path
         id="path125"
         d="m 2247.38,2538.37 c 32.35,-47.58 87.14,-75.03 144.66,-76.36 47.46,-1.1 110.96,1.41 142.62,19.79 54.3,31.52 42.46,49.48 42.46,49.48 0,0 28.09,39.52 27.06,49.99 -1.03,10.47 11.93,24.59 -5.92,37.18 -17.86,12.59 -152.9,26.5 -152.9,26.5 0,0 -17.17,28.21 2.31,37.99 28.07,14.09 25.72,45.58 22.22,50.52 -3.51,4.94 -3.96,5.71 -37.09,0.88 -32.02,-4.65 -69.98,-17.03 -88.01,-34.33 -42.1,-40.39 -152.38,-57.22 -107.34,-144.98 2.99,-5.82 6.33,-11.38 9.93,-16.66"
         style="fill:#f8a19c;fill-opacity:1;fill-rule:nonzero;stroke:none"
         transform="matrix(0.13333333,0,0,-0.13333333,0,666.66667)" />
      <path
         id="path126"
         d="m 2407.43,2577.54 c 0.03,0 39.33,3.87 82.93,10.61 21.8,3.38 44.67,7.47 64.28,12.17 19.64,4.74 35.92,9.95 45.02,16.06 l -2.8,4.14 c -7.9,-5.38 -24.01,-10.71 -43.38,-15.34 -29.1,-6.98 -65.77,-12.66 -95.13,-16.58 -14.68,-1.96 -27.54,-3.48 -36.72,-4.51 -9.19,-1.03 -14.67,-1.57 -14.69,-1.57 l 0.49,-4.98"
         style="fill:#040606;fill-opacity:1;fill-rule:nonzero;stroke:none"
         transform="matrix(0.13333333,0,0,-0.13333333,0,666.66667)" />
      <path
         id="path127"
         d="m 2415.93,2524.01 c 0.03,0 42.7,7.98 87.68,18.83 22.5,5.43 45.57,11.57 64.23,17.82 9.33,3.13 17.56,6.28 24.1,9.42 6.55,3.17 11.42,6.19 14.2,9.64 l -3.92,3.1 c -1.76,-2.27 -6.19,-5.27 -12.44,-8.23 -21.94,-10.54 -65.81,-22.05 -103.97,-30.8 -19.1,-4.39 -36.8,-8.1 -49.73,-10.72 -12.92,-2.62 -21.04,-4.14 -21.06,-4.15 l 0.91,-4.91"
         style="fill:#040606;fill-opacity:1;fill-rule:nonzero;stroke:none"
         transform="matrix(0.13333333,0,0,-0.13333333,0,666.66667)" />
      <path
         id="path128"
         d="m 2575.85,2533.44 c -0.01,-0.01 -3.71,-2.19 -10.18,-5.6 -19.37,-10.21 -63.34,-31.13 -103.08,-35.01 l 0.48,-4.98 c 54.69,5.43 115.16,41.23 115.32,41.28 l -2.54,4.31"
         style="fill:#040606;fill-opacity:1;fill-rule:nonzero;stroke:none"
         transform="matrix(0.13333333,0,0,-0.13333333,0,666.66667)" />
      <path
         id="path129"
         d="m 2473.92,2644.82 c -0.07,0 -24.18,3.85 -46.65,3.86 -10.77,-0.02 -21.13,-0.85 -28.63,-3.63 l 1.75,-4.68 c 6.37,2.4 16.41,3.32 26.88,3.31 10.96,0 22.45,-0.95 31.18,-1.9 8.73,-0.95 14.66,-1.9 14.68,-1.9 l 0.79,4.94"
         style="fill:#040606;fill-opacity:1;fill-rule:nonzero;stroke:none"
         transform="matrix(0.13333333,0,0,-0.13333333,0,666.66667)" />
      <path
         id="path130"
         d="m 2447.5,2646.25 c 0,0.01 -0.39,0.64 -1.02,1.83 -1.9,3.56 -5.65,11.86 -5.61,19.21 0.09,5.61 1.79,10.26 7.92,13.42 20.46,10.27 25.69,29.44 25.65,41.88 0,2.8 -0.25,5.29 -0.67,7.34 -0.44,2.08 -0.94,3.67 -1.84,4.98 -0.93,1.29 -1.88,2.74 -3.68,3.79 -1.81,1.02 -3.98,1.39 -7.06,1.39 -5.23,-0.01 -13.54,-1.06 -28.75,-3.27 -32.38,-4.77 -70.52,-17.02 -89.38,-35 -21.23,-20.48 -61.61,-35.19 -89.43,-57.07 l 3.1,-3.93 c 26.85,21.27 67.21,35.83 89.79,57.39 17.2,16.62 54.98,29.11 86.64,33.66 15.14,2.21 23.47,3.23 28.03,3.22 2.72,0 3.94,-0.36 4.56,-0.73 0.63,-0.34 1.13,-0.96 2.1,-2.35 0.18,-0.21 0.7,-1.41 1.02,-3.07 0.34,-1.67 0.57,-3.86 0.57,-6.35 -0.04,-11.27 -4.55,-28.21 -22.89,-37.41 -7.97,-3.92 -10.77,-11.17 -10.68,-17.89 0.07,-11.87 7.29,-23.44 7.36,-23.64 l 4.27,2.6"
         style="fill:#040606;fill-opacity:1;fill-rule:nonzero;stroke:none"
         transform="matrix(0.13333333,0,0,-0.13333333,0,666.66667)" />
      <path
         id="path131"
         d="m 1536.55,1396.57 c 0.01,0.08 14.97,106.82 14.97,244.08 0,53.45 -2.27,111.52 -8.58,169.74 l -4.97,-0.54 c 6.29,-57.99 8.55,-115.9 8.55,-169.2 0,-68.45 -3.73,-129.31 -7.46,-173.06 -1.87,-21.87 -3.74,-39.46 -5.14,-51.58 -1.4,-12.11 -2.32,-18.72 -2.33,-18.74 l 4.96,-0.7"
         style="fill:#040606;fill-opacity:1;fill-rule:nonzero;stroke:none"
         transform="matrix(0.13333333,0,0,-0.13333333,0,666.66667)" />
      <path
         id="path132"
         d="m 1217.99,3738.87 c 0,0 43.96,-178.17 194.22,-259.75 150.27,-81.57 300.79,-66.51 324.3,-63.64 23.5,2.87 29.23,172.7 25.64,229.19 -3.59,56.49 -11.83,245.64 -27.42,284.59 -22.43,56.08 -249.27,177.25 -409.25,68.86 -150.98,-102.28 -107.49,-259.25 -107.49,-259.25"
         style="fill:#f8a19c;fill-opacity:1;fill-rule:nonzero;stroke:none"
         transform="matrix(0.13333333,0,0,-0.13333333,0,666.66667)" />
      <path
         id="path133"
         d="m 1713.49,3714.32 c 0,0 85.02,-7.58 92.55,-28.63 7.53,-21.05 -52.7,-69.5 -52.7,-69.5 l -39.85,98.13"
         style="fill:#f8a19c;fill-opacity:1;fill-rule:nonzero;stroke:none"
         transform="matrix(0.13333333,0,0,-0.13333333,0,666.66667)" />
      <path
         id="path134"
         d="m 1752.02,3577.08 c 0,0 -0.63,-0.23 -1.92,-0.6 -3.86,-1.12 -13.26,-3.39 -25.41,-3.39 -23.69,0.07 -57.56,8.39 -82.81,50.89 l -4.3,-2.54 c 26.08,-44.13 62.29,-53.42 87.11,-53.35 17.03,0 28.83,4.22 29.01,4.28 l -1.68,4.71"
         style="fill:#040606;fill-opacity:1;fill-rule:nonzero;stroke:none"
         transform="matrix(0.13333333,0,0,-0.13333333,0,666.66667)" />
      <path
         id="path135"
         d="m 1655.86,3625.63 c -0.06,0 -6.21,0.68 -13,0.68 -3.55,0 -7.25,-0.18 -10.46,-0.77 -3.17,-0.67 -6.06,-1.43 -7.82,-4.14 l 4.3,-2.54 c -0.02,0.25 1.7,1.33 4.44,1.76 2.69,0.51 6.18,0.69 9.54,0.69 6.46,0 12.44,-0.66 12.45,-0.65 l 0.55,4.97"
         style="fill:#040606;fill-opacity:1;fill-rule:nonzero;stroke:none"
         transform="matrix(0.13333333,0,0,-0.13333333,0,666.66667)" />
      <path
         id="path136"
         d="m 1633.75,3802.29 c 5.54,-9.12 30.46,-3.63 39.55,-0.67 22.94,7.48 46,25.95 42.73,35.2 -5.26,14.82 -47.4,4.17 -56.68,0.15 -9.52,-4.11 -33.65,-21.42 -25.6,-34.68"
         style="fill:#040606;fill-opacity:1;fill-rule:nonzero;stroke:none"
         transform="matrix(0.13333333,0,0,-0.13333333,0,666.66667)" />
      <path
         id="path137"
         d="m 1356.24,3488.12 c 0,0 -105.2,68.41 -147.44,131.91 -42.24,63.51 -4.39,289.98 34.98,341.74 47.08,61.92 135.74,116.1 304.82,72.64 169.08,-43.45 249,-33.85 249,-33.85 0,0 21.41,-45.1 -56.19,-89.22 0,0 -176.22,82.58 -256.65,24.26 -80.44,-58.32 19.16,-86.01 19.16,-86.01 l -2.55,-171.32 c 0,0 -87.6,90.01 -132.19,45.04 -44.59,-44.97 15.44,-131.65 67.3,-132.1 l -80.24,-103.09"
         style="fill:#040606;fill-opacity:1;fill-rule:nonzero;stroke:none"
         transform="matrix(0.13333333,0,0,-0.13333333,0,666.66667)" />
      <path
         id="path138"
         d="m 1404.4,3685.21 0.15,-0.02 c 2.08,-0.28 23.91,-3.03 42.11,-42.36 l 2.27,1.04 0.3,2.49 c -0.06,0 -5.85,0.7 -12.58,0.7 -3.38,0 -7,-0.17 -10.3,-0.73 -3.31,-0.58 -6.33,-1.44 -8.63,-3.33 l 3.21,-3.83 c 1.02,0.9 3.37,1.77 6.25,2.23 2.88,0.49 6.27,0.67 9.47,0.66 3.19,0 6.21,-0.16 8.41,-0.33 2.2,-0.17 3.57,-0.34 3.57,-0.34 l 4.44,-0.53 -1.87,4.06 c -19.93,43.48 -45.87,45.34 -46.57,45.28 l -0.23,-4.99"
         style="fill:#040606;fill-opacity:1;fill-rule:nonzero;stroke:none"
         transform="matrix(0.13333333,0,0,-0.13333333,0,666.66667)" />
      <path
         id="path139"
         d="m 1429.43,3549.04 c 0.05,-0.21 5.92,-33.79 29.96,-67.55 24,-33.76 66.51,-67.63 138.82,-67.59 v 5 c -70.68,0.05 -111.33,32.72 -134.74,65.5 -11.69,16.39 -18.98,32.81 -23.34,45.12 -2.18,6.15 -3.63,11.28 -4.53,14.85 -0.45,1.78 -0.77,3.18 -0.96,4.13 -0.2,0.94 -0.28,1.41 -0.29,1.41 l -4.92,-0.87"
         style="fill:#040606;fill-opacity:1;fill-rule:nonzero;stroke:none"
         transform="matrix(0.13333333,0,0,-0.13333333,0,666.66667)" />
      <path
         id="path140"
         d="m 2309.92,2484.42 -614.79,-26.71 c -11.07,-0.48 -21.79,3.92 -29.32,12.05 l -265.24,226.99 201.6,232.48 204.24,-257.38 456.35,-63.6 47.16,-123.83"
         style="fill:#f8a19c;fill-opacity:1;fill-rule:nonzero;stroke:none"
         transform="matrix(0.13333333,0,0,-0.13333333,0,666.66667)" />
      <path
         id="path141"
         d="m 1635.92,3740.91 c 0,0 26.32,17.86 73.27,26.74 0,0 6.95,-30.49 0.62,-64.41 l -73.89,37.67"
         style="fill:#efefed;fill-opacity:1;fill-rule:nonzero;stroke:none"
         transform="matrix(0.13333333,0,0,-0.13333333,0,666.66667)" />
      <path
         id="path142"
         d="m 1709.19,3767.65 c -3.93,-0.75 -7.66,-1.57 -11.3,-2.42 -4.85,-6.78 -7.89,-17.71 -7.62,-30.05 0.21,-9.74 2.47,-18.5 5.92,-25 l 13.62,-6.94 c 6.33,33.92 -0.62,64.41 -0.62,64.41"
         style="fill:#6b3c2d;fill-opacity:1;fill-rule:nonzero;stroke:none"
         transform="matrix(0.13333333,0,0,-0.13333333,0,666.66667)" />
      <path
         id="path143"
         d="m 1604.41,2930.35 c -0.03,0.05 -38.12,76.87 -89.87,153.79 -25.88,38.47 -55.17,76.96 -84.92,105.94 -29.76,28.93 -59.95,48.61 -88.32,48.68 -5.07,0 -10.07,-0.64 -14.95,-1.98 l 1.32,-4.83 c 4.44,1.23 8.98,1.81 13.63,1.81 25.93,0.08 55.5,-18.63 84.83,-47.26 44.04,-42.88 87.57,-107.53 119.99,-161.41 16.22,-26.94 29.68,-51.19 39.08,-68.7 4.7,-8.76 8.39,-15.83 10.89,-20.71 2.51,-4.88 3.84,-7.55 3.84,-7.56 l 4.48,2.23"
         style="fill:#040606;fill-opacity:1;fill-rule:nonzero;stroke:none"
         transform="matrix(0.13333333,0,0,-0.13333333,0,666.66667)" />
    </g>
  </g>
</svg>
