<svg width="51" height="63" viewBox="0 0 51 63" fill="none" xmlns="http://www.w3.org/2000/svg">
<path d="M34.8756 1.5V12.75C34.8756 14.8211 36.5545 16.5 38.6256 16.5H49.8756M14.2506 16.5H21.7506M14.2506 27.75H36.7506M14.2506 39H36.7506M44.2506 7.125C42.5816 5.63169 40.8497 3.86056 39.7564 2.71025C39.0288 1.9448 38.0236 1.5 36.9676 1.5H8.62471C4.48259 1.5 1.12474 4.85784 1.12471 8.99996L1.12442 53.9998C1.12439 58.1419 4.48225 61.4998 8.62439 61.4998L42.3745 61.5C46.5166 61.5 49.8745 58.1422 49.8746 54.0002L49.8756 14.2432C49.8756 13.2844 49.5098 12.3626 48.8443 11.6723C47.6137 10.3958 45.5586 8.29537 44.2506 7.125Z" stroke="black" stroke-width="2" stroke-linecap="round" stroke-linejoin="round"/>
</svg>
