<svg width="22" height="19" viewBox="0 0 22 19" fill="none" xmlns="http://www.w3.org/2000/svg">
<path d="M19.25 4.24998L2.74998 4.24998C2.58293 4.25041 2.41918 4.28811 2.27636 4.35901C2.13354 4.42992 2.01707 4.53135 1.93947 4.6524C1.86187 4.77344 1.82609 4.9095 1.83597 5.04594C1.84586 5.18239 1.90103 5.31404 1.99557 5.42673L10.2456 15.1767C10.5875 15.581 11.4106 15.581 11.7535 15.1767L20.0035 5.42673C20.099 5.31427 20.155 5.18255 20.1654 5.04588C20.1758 4.90921 20.1403 4.77282 20.0626 4.65153C19.9849 4.53023 19.8681 4.42867 19.7248 4.35787C19.5816 4.28708 19.4173 4.24976 19.25 4.24998Z" fill="#878787"/>
</svg>
