<svg width="128" height="128" viewBox="0 0 128 128" fill="none" xmlns="http://www.w3.org/2000/svg">
<g clip-path="url(#clip0_732_1201)">
<path d="M82.9434 39.01C84.6368 40.7425 85.9106 42.8531 86.6636 45.1744L89.0982 52.7928C89.3028 53.3788 89.6806 53.8859 90.1795 54.2445C90.6784 54.603 91.2741 54.7955 91.8847 54.7955C92.4953 54.7955 93.0909 54.603 93.5899 54.2445C94.0888 53.8859 94.4665 53.3788 94.6712 52.7928L97.1057 45.1744C97.8621 42.8578 99.1389 40.753 100.835 39.0276C102.53 37.3022 104.598 36.0037 106.873 35.2356L114.353 32.7609C114.928 32.5524 115.426 32.1677 115.778 31.6595C116.13 31.1513 116.319 30.5446 116.319 29.9227C116.319 29.3007 116.13 28.694 115.778 28.1858C115.426 27.6777 114.928 27.2929 114.353 27.0844L114.206 27.0446L106.722 24.5699C104.446 23.8018 102.379 22.5034 100.683 20.7779C98.9874 19.0525 97.7105 16.9477 96.9541 14.6311L94.5245 7.0127C94.3221 6.42446 93.9452 5.91481 93.446 5.55425C92.9468 5.19368 92.35 5 91.738 5C91.126 5 90.5292 5.19368 90.03 5.55425C89.5308 5.91481 89.1539 6.42446 88.9515 7.0127L86.517 14.6311L86.4534 14.8203C85.694 17.0791 84.4383 19.1316 82.7821 20.8211C81.1258 22.5107 79.1127 23.7929 76.8962 24.5699L69.4167 27.0446C68.8414 27.2531 68.3435 27.6378 67.9915 28.146C67.6394 28.6542 67.4504 29.2609 67.4504 29.8828C67.4504 30.5048 67.6394 31.1115 67.9915 31.6197C68.3435 32.1279 68.8414 32.5126 69.4167 32.7211L76.8962 35.1958C79.1792 35.9726 81.2471 37.2772 82.9434 39.01ZM125.23 56.5821L129.718 58.0659L129.81 58.0859C130.158 58.2086 130.459 58.4386 130.672 58.7438C130.885 59.049 131 59.4142 131 59.7888C131 60.1634 130.885 60.5286 130.672 60.8338C130.459 61.139 130.158 61.369 129.81 61.4917L125.318 62.9806C123.956 63.4451 122.718 64.2251 121.702 65.2593C120.685 66.2935 119.918 67.5537 119.461 68.9408L118 73.5119C117.877 73.8635 117.65 74.1677 117.351 74.3829C117.051 74.598 116.694 74.7135 116.328 74.7135C115.961 74.7135 115.604 74.598 115.305 74.3829C115.005 74.1677 114.779 73.8635 114.656 73.5119L113.194 68.9408C112.743 67.5472 111.979 66.2803 110.962 65.2411C109.946 64.2019 108.704 63.4192 107.338 62.9557L102.845 61.4718C102.497 61.349 102.196 61.1191 101.983 60.8139C101.77 60.5087 101.655 60.1434 101.655 59.7689C101.655 59.3943 101.77 59.0291 101.983 58.7239C102.196 58.4187 102.497 58.1887 102.845 58.0659L107.338 56.5771C108.683 56.1009 109.904 55.3156 110.904 54.282C111.904 53.2485 112.658 51.9944 113.106 50.6168L114.568 46.0458C114.691 45.6942 114.917 45.39 115.217 45.1748C115.516 44.9597 115.873 44.8442 116.24 44.8442C116.606 44.8442 116.963 44.9597 117.263 45.1748C117.562 45.39 117.789 45.6942 117.912 46.0458L119.368 50.6168C119.823 52.0064 120.589 53.2687 121.607 54.3034C122.624 55.3381 123.865 56.1217 125.23 56.5821ZM71.1081 19.9441H75.3025L67.8768 22.4337C66.3131 22.9652 64.959 23.9953 64.0148 25.3716C63.5725 25.9972 63.2218 26.6848 62.9735 27.4131H31.9993C31.0269 27.4131 30.0944 27.8065 29.4068 28.5069C28.7192 29.2073 28.3329 30.1571 28.3329 31.1476V115.796C28.3329 117.858 29.9755 119.531 31.9993 119.531H77.1993V103.328C77.1993 100.357 78.3582 97.5072 80.421 95.4061C82.4837 93.305 85.2815 92.1247 88.1987 92.1247H104.106V67.1184L105.817 67.691C106.445 67.9001 107.015 68.2585 107.479 68.7367C107.966 69.2247 108.334 69.8214 108.555 70.4795L110.021 75.0605C110.315 75.9866 110.799 76.8281 111.439 77.5352V95.8592C111.438 96.8493 111.051 97.7985 110.364 98.4982L83.4567 125.905C82.7698 126.605 81.8378 126.999 80.8658 127H31.9993C29.0821 127 26.2844 125.82 24.2216 123.719C22.1589 121.617 21 118.768 21 115.796V31.1476C21 28.1762 22.1589 25.3266 24.2216 23.2255C26.2844 21.1244 29.0821 19.9441 31.9993 19.9441H38.1101V13.7199C38.1101 12.7294 38.4964 11.7795 39.184 11.0792C39.8716 10.3788 40.8041 9.98537 41.7765 9.98537C42.7489 9.98537 43.6815 10.3788 44.3691 11.0792C45.0567 11.7795 45.443 12.7294 45.443 13.7199V19.9441H63.7752V13.7199C63.7752 12.7294 64.1615 11.7795 64.8491 11.0792C65.5367 10.3788 66.4693 9.98537 67.4417 9.98537C68.4141 9.98537 69.3467 10.3788 70.0343 11.0792C70.7218 11.7795 71.1081 12.7294 71.1081 13.7199V19.9441ZM88.1987 99.5937C87.2263 99.5937 86.2937 99.9871 85.6061 100.688C84.9185 101.388 84.5322 102.338 84.5322 103.328V114.248L98.9194 99.5937H88.1987ZM41.7765 47.3305H82.1661L84.4491 54.4509C84.4882 54.5671 84.5322 54.6833 84.5811 54.7995H41.7765C40.8041 54.7995 39.8716 54.406 39.184 53.7057C38.4964 53.0053 38.1101 52.0554 38.1101 51.065C38.1101 50.0745 38.4964 49.1246 39.184 48.4243C39.8716 47.7239 40.8041 47.3305 41.7765 47.3305ZM38.1101 73.472C38.1101 72.4816 38.4964 71.5317 39.184 70.8313C39.8716 70.131 40.8041 69.7375 41.7765 69.7375H90.6625C91.6349 69.7375 92.5675 70.131 93.2551 70.8313C93.9427 71.5317 94.329 72.4816 94.329 73.472C94.329 74.4625 93.9427 75.4124 93.2551 76.1127C92.5675 76.8131 91.6349 77.2066 90.6625 77.2066H41.7765C40.8041 77.2066 39.8716 76.8131 39.184 76.1127C38.4964 75.4124 38.1101 74.4625 38.1101 73.472ZM41.7765 92.1446C40.8041 92.1446 39.8716 92.538 39.184 93.2384C38.4964 93.9388 38.1101 94.8886 38.1101 95.8791C38.1101 96.8695 38.4964 97.8194 39.184 98.5198C39.8716 99.2202 40.8041 99.6136 41.7765 99.6136H63.7752C64.7476 99.6136 65.6802 99.2202 66.3678 98.5198C67.0554 97.8194 67.4417 96.8695 67.4417 95.8791C67.4417 94.8886 67.0554 93.9388 66.3678 93.2384C65.6802 92.538 64.7476 92.1446 63.7752 92.1446H41.7765Z" fill="white"/>
</g>
<defs>
<clipPath id="clip0_732_1201">
<rect width="128" height="128" fill="white"/>
</clipPath>
</defs>
</svg>
