<svg width="25" height="26" viewBox="0 0 25 26" fill="none" xmlns="http://www.w3.org/2000/svg">
<g clip-path="url(#clip0_449_477)">
<path d="M25 10.3124C25.0005 9.97299 24.9112 9.6395 24.741 9.34585C24.5709 9.05219 24.326 8.80883 24.0312 8.64051L13.5 2.39051C13.1965 2.21343 12.8514 2.12012 12.5 2.12012C12.1486 2.12012 11.8035 2.21343 11.5 2.39051L0.953123 8.64051C0.661673 8.81344 0.420236 9.05924 0.252541 9.35374C0.0848466 9.64823 -0.00333405 9.9813 -0.00333405 10.3202C-0.00333405 10.6591 0.0848466 10.9922 0.252541 11.2867C0.420236 11.5812 0.661673 11.8269 0.953123 11.9999L3.95312 13.7499V18.1405C3.95493 18.4837 4.04499 18.8206 4.21465 19.1188C4.38431 19.4171 4.62786 19.6667 4.92187 19.8436L11.5625 23.6718C11.859 23.8359 12.1923 23.922 12.5312 23.922C12.8702 23.922 13.2035 23.8359 13.5 23.6718L20.1406 19.8436C20.4346 19.6667 20.6782 19.4171 20.8478 19.1188C21.0175 18.8206 21.1076 18.4837 21.1094 18.1405V13.703L23.0469 12.5624V16.8124H25V10.3124ZM19.1719 18.1249L12.5 21.9686L5.90625 18.1405V14.9061L11.5 18.2343C11.8045 18.4083 12.1492 18.4998 12.5 18.4998C12.8508 18.4998 13.1954 18.4083 13.5 18.2343L19.1562 14.8593L19.1719 18.1249ZM12.5 16.5468L1.95312 10.2968L12.5 4.03113L23.0469 10.2811L12.5 16.5468Z" fill="#A75978"/>
</g>
<defs>
<clipPath id="clip0_449_477">
<rect width="25" height="25" fill="white" transform="translate(0 0.5)"/>
</clipPath>
</defs>
</svg>
