<svg width="32" height="32" viewBox="0 0 32 32" fill="none" xmlns="http://www.w3.org/2000/svg">
<path d="M25.3333 12.8265C25.3333 16.2665 23.64 18.9132 21.064 20.6558C20.464 21.0612 20.164 21.2638 20.016 21.4958C19.8693 21.7252 19.8173 22.0292 19.7173 22.6345L19.6373 23.1052C19.4613 24.1692 19.372 24.7012 18.9986 25.0172C18.6253 25.3332 18.0866 25.3332 17.008 25.3332H13.5253C12.4466 25.3332 11.908 25.3332 11.5346 25.0172C11.1613 24.7012 11.0733 24.1692 10.8946 23.1052L10.8173 22.6345C10.716 22.0305 10.6666 21.7278 10.52 21.4985C10.3733 21.2692 10.072 21.0638 9.47065 20.6532C6.92265 18.9105 5.33331 16.2652 5.33331 12.8265C5.33331 7.21718 9.81065 2.66651 15.3333 2.66651C16.0051 2.6658 16.6753 2.73371 17.3333 2.86918" stroke="#A75978" stroke-width="3" stroke-linecap="round" stroke-linejoin="round"/>
<path d="M18 25.3332V26.6665C18 27.9238 18 28.5518 17.6093 28.9425C17.2186 29.3332 16.5906 29.3332 15.3333 29.3332C14.076 29.3332 13.448 29.3332 13.0573 28.9425C12.6666 28.5518 12.6666 27.9238 12.6666 26.6665V25.3332M22 2.6665L22.344 3.59584C22.7946 4.8145 23.02 5.42384 23.464 5.86784C23.9093 6.31317 24.5186 6.5385 25.7373 6.98917L26.6666 7.33317L25.7373 7.67717C24.5186 8.12784 23.9093 8.35317 23.4653 8.79717C23.02 9.2425 22.7946 9.85184 22.344 11.0705L22 11.9998L21.656 11.0705C21.2053 9.85184 20.98 9.2425 20.536 8.7985C20.0906 8.35317 19.4813 8.12784 18.2626 7.67717L17.3333 7.33317L18.2626 6.98917C19.4813 6.5385 20.0906 6.31317 20.5346 5.86917C20.98 5.42384 21.2053 4.8145 21.656 3.59584L22 2.6665Z" stroke="#A75978" stroke-width="3" stroke-linecap="round" stroke-linejoin="round"/>
</svg>
