<svg width="18" height="18" viewBox="0 0 18 18" fill="none" xmlns="http://www.w3.org/2000/svg">
<g clip-path="url(#clip0_1004_616)">
<circle cx="9" cy="9" r="9" fill="#D20A11"/>
<path d="M9.5 5H10.3889V8.60784L10.8333 8.29412L11.109 8.0995C11.7159 7.6711 12.5455 7.75404 13.0556 8.29412C13.3428 8.64065 13.5 9.07662 13.5 9.52672V13H12.6111V9.70588V9.209C12.6111 8.92367 12.502 8.64914 12.306 8.4417C11.9611 8.07644 11.4148 7.9863 10.9707 8.22137L10.8333 8.29412C10.5479 8.59634 10.3889 8.99629 10.3889 9.412V9.70588V11.1176V13H9.5V9.23529V5Z" fill="white"/>
<path d="M10.8333 8.29412L11.109 8.0995C11.7159 7.6711 12.5455 7.75404 13.0556 8.29412C13.3428 8.64065 13.5 9.07662 13.5 9.52672V13H12.6111V9.70588V9.209C12.6111 8.92367 12.502 8.64914 12.306 8.4417C11.9611 8.07644 11.4148 7.9863 10.9707 8.22137L10.8333 8.29412ZM10.8333 8.29412L9.5 9.23529L10.3889 11.1176V9.70588V9.412C10.3889 8.99629 10.5479 8.59634 10.8333 8.29412ZM9.5 5H10.3889V13H9.5V5Z" stroke="white" stroke-width="0.5"/>
<path d="M4 5H4.88889V8.60784L5.33333 8.29412L5.60904 8.0995C6.21594 7.6711 7.04548 7.75404 7.55556 8.29412C7.8428 8.64065 8 9.07662 8 9.52672V13H7.11111V9.70588V9.209C7.11111 8.92367 7.00197 8.64914 6.80605 8.4417C6.46108 8.07644 5.91477 7.9863 5.47075 8.22137L5.33333 8.29412C5.0479 8.59634 4.88889 8.99629 4.88889 9.412V9.70588V11.1176V13H4V9.23529V5Z" fill="white"/>
<path d="M5.33333 8.29412L5.60904 8.0995C6.21594 7.6711 7.04548 7.75404 7.55556 8.29412C7.8428 8.64065 8 9.07662 8 9.52672V13H7.11111V9.70588V9.209C7.11111 8.92367 7.00197 8.64914 6.80605 8.4417C6.46108 8.07644 5.91477 7.9863 5.47075 8.22137L5.33333 8.29412ZM5.33333 8.29412L4 9.23529L4.88889 11.1176V9.70588V9.412C4.88889 8.99629 5.0479 8.59634 5.33333 8.29412ZM4 5H4.88889V13H4V5Z" stroke="white" stroke-width="0.5"/>
</g>
<defs>
<clipPath id="clip0_1004_616">
<rect width="18" height="18" fill="white"/>
</clipPath>
</defs>
</svg>
