<svg width="19" height="18" viewBox="0 0 19 18" fill="none" xmlns="http://www.w3.org/2000/svg">
<g clip-path="url(#clip0_1004_271)">
<path d="M18.4709 15.5C18.4709 16.881 17.3566 18 15.9813 18H3.03548C1.66073 18 0.545898 16.881 0.545898 15.5V2.5C0.545898 1.119 1.66073 0 3.03548 0H15.9813C17.3566 0 18.4709 1.119 18.4709 2.5V15.5Z" fill="#0288D1"/>
<path d="M5.0271 7.125H6.89429V13.5H5.0271V7.125ZM5.95509 6.375H5.94464C5.38747 6.375 5.0271 5.958 5.0271 5.43712C5.0271 4.905 5.39867 4.5 5.96592 4.5C6.53392 4.5 6.88383 4.905 6.89429 5.43712C6.89429 5.95762 6.53392 6.375 5.95509 6.375ZM13.9896 13.5H12.1224V10.0879C12.1224 9.26362 11.665 8.70112 10.9304 8.70112C10.3699 8.70112 10.0666 9.08063 9.9195 9.44738C9.86573 9.57863 9.88179 9.94163 9.88179 10.125V13.5H8.0146V7.125H9.88179V8.106C10.151 7.6875 10.5726 7.125 11.6511 7.125C12.9873 7.125 13.9892 7.96875 13.9892 9.85275L13.9896 13.5Z" fill="white"/>
</g>
<defs>
<clipPath id="clip0_1004_271">
<rect width="17.925" height="18" fill="white" transform="translate(0.545898)"/>
</clipPath>
</defs>
</svg>
