<svg width="25" height="26" viewBox="0 0 25 26" fill="none" xmlns="http://www.w3.org/2000/svg">
<path d="M21.0938 20.0313H16.4062C15.7846 20.0313 15.1885 20.2782 14.749 20.7177C14.3094 21.1573 14.0625 21.7534 14.0625 22.375V23.9375H15.625V22.375C15.625 22.1678 15.7073 21.9691 15.8538 21.8226C16.0003 21.6761 16.199 21.5938 16.4062 21.5938H21.0938C21.301 21.5938 21.4997 21.6761 21.6462 21.8226C21.7927 21.9691 21.875 22.1678 21.875 22.375V23.9375H23.4375V22.375C23.4375 21.7534 23.1906 21.1573 22.751 20.7177C22.3115 20.2782 21.7154 20.0313 21.0938 20.0313ZM15.625 16.125C15.625 16.7431 15.8083 17.3473 16.1517 17.8612C16.495 18.3751 16.9831 18.7756 17.5541 19.0121C18.1251 19.2486 18.7535 19.3105 19.3597 19.19C19.9658 19.0694 20.5227 18.7717 20.9597 18.3347C21.3967 17.8977 21.6944 17.3408 21.815 16.7347C21.9355 16.1285 21.8736 15.5001 21.6371 14.9291C21.4006 14.3581 21.0001 13.87 20.4862 13.5267C19.9723 13.1833 19.3681 13 18.75 13C17.9212 13 17.1263 13.3292 16.5403 13.9153C15.9542 14.5013 15.625 15.2962 15.625 16.125ZM20.3125 16.125C20.3125 16.434 20.2209 16.7361 20.0492 16.9931C19.8775 17.25 19.6335 17.4503 19.3479 17.5686C19.0624 17.6868 18.7483 17.7178 18.4452 17.6575C18.1421 17.5972 17.8637 17.4484 17.6451 17.2299C17.4266 17.0113 17.2778 16.7329 17.2175 16.4298C17.1572 16.1267 17.1882 15.8126 17.3064 15.5271C17.4247 15.2415 17.625 14.9975 17.8819 14.8258C18.1389 14.6541 18.441 14.5625 18.75 14.5625C19.1644 14.5625 19.5618 14.7271 19.8549 15.0201C20.1479 15.3132 20.3125 15.7106 20.3125 16.125ZM4.6875 16.9063V16.125H3.125V16.9063C3.125 18.3567 3.70117 19.7477 4.72676 20.7732C5.75235 21.7988 7.14335 22.375 8.59375 22.375H10.9375V20.8125H8.59375C7.55775 20.8125 6.56418 20.401 5.83161 19.6684C5.09905 18.9358 4.6875 17.9423 4.6875 16.9063ZM14.8438 8.3125H20.3125V9.875H14.8438V8.3125ZM14.8438 5.1875H22.6562V6.75H14.8438V5.1875ZM14.8438 2.0625H22.6562V3.625H14.8438V2.0625ZM8.59375 9.09375H3.90625C3.28465 9.09375 2.68851 9.34068 2.24897 9.78022C1.80943 10.2198 1.5625 10.8159 1.5625 11.4375V13H3.125V11.4375C3.125 11.2303 3.20731 11.0316 3.35382 10.8851C3.50034 10.7386 3.69905 10.6563 3.90625 10.6563H8.59375C8.80095 10.6563 8.99966 10.7386 9.14618 10.8851C9.29269 11.0316 9.375 11.2303 9.375 11.4375V13H10.9375V11.4375C10.9375 10.8159 10.6906 10.2198 10.251 9.78022C9.81149 9.34068 9.21535 9.09375 8.59375 9.09375ZM6.25 8.3125C6.86807 8.3125 7.47225 8.12922 7.98616 7.78584C8.50006 7.44246 8.9006 6.95441 9.13712 6.38339C9.37365 5.81237 9.43553 5.18403 9.31495 4.57784C9.19438 3.97165 8.89675 3.41483 8.45971 2.97779C8.02267 2.54075 7.46585 2.24313 6.85966 2.12255C6.25347 2.00197 5.62513 2.06385 5.05411 2.30038C4.4831 2.5369 3.99504 2.93744 3.65166 3.45134C3.30828 3.96525 3.125 4.56943 3.125 5.1875C3.125 6.0163 3.45424 6.81116 4.04029 7.39721C4.62634 7.98326 5.4212 8.3125 6.25 8.3125ZM6.25 3.625C6.55903 3.625 6.86113 3.71664 7.11808 3.88833C7.37503 4.06002 7.5753 4.30405 7.69356 4.58956C7.81182 4.87507 7.84277 5.18923 7.78248 5.49233C7.72219 5.79543 7.57337 6.07384 7.35485 6.29236C7.13633 6.51088 6.85792 6.65969 6.55483 6.71998C6.25173 6.78027 5.93757 6.74933 5.65206 6.63106C5.36655 6.5128 5.12252 6.31253 4.95083 6.05558C4.77914 5.79863 4.6875 5.49653 4.6875 5.1875C4.6875 4.7731 4.85212 4.37567 5.14515 4.08265C5.43817 3.78962 5.8356 3.625 6.25 3.625Z" fill="#A75978"/>
</svg>
