<svg width="128" height="128" viewBox="0 0 128 128" fill="none" xmlns="http://www.w3.org/2000/svg">
<path d="M29.5195 51.0881C32.1898 53.6247 33.7444 56.9413 34.7046 60.2578C36.5793 66.7023 36.5793 74.6722 36.5793 80.8339V81.151C36.5793 98.7876 33.0585 109.26 29.0714 115.49C27.5607 117.94 25.5831 120.11 23.237 121.892C22.3037 122.569 21.2913 123.144 20.2192 123.606C20.2192 123.606 19.0578 124 18.2896 124C17.6304 123.951 16.9813 123.818 16.3601 123.606C15.288 123.144 14.2755 122.569 13.3423 121.892C10.9961 120.11 9.0186 117.94 7.50789 115.49C3.52075 109.269 0 98.7876 0 81.151V80.8425C0 74.6722 4.08805e-07 66.7108 1.87469 60.2492C2.83489 56.9413 4.38951 53.6247 7.0598 51.0795C2.74344 47.2488 0 41.1471 0 34.017C0 31.2233 0.795599 27.8896 1.89298 24.8131C2.99036 21.7365 4.52668 18.54 6.30078 15.969C8.41323 12.6268 11.3853 9.82447 13.6898 7.93911C14.9579 6.90306 16.2761 5.92221 17.6404 4.99967L17.9147 4.82827L17.997 4.76828L18.0244 4.75114L18.0427 4.74257C18.8816 4.20756 19.8865 3.94923 20.8993 4.00827C21.912 4.06731 22.875 4.44037 23.6367 5.0687C24.3983 5.69702 24.9152 6.54491 25.1061 7.47884C25.297 8.41276 25.151 9.37965 24.691 10.2272C24.6107 10.4744 24.5706 10.7316 24.5721 10.99C24.5721 11.5299 24.7184 12.5582 26.0993 13.8437C26.7669 14.4693 27.279 14.9149 27.8368 15.4034C28.2941 15.7976 28.7787 16.209 29.3914 16.7746C30.5803 17.8372 31.8331 19.0884 32.9579 20.6567C35.2899 23.9389 36.5793 28.0439 36.5793 34.017C36.5793 41.1471 33.8358 47.2402 29.5195 51.0881ZM18.2896 55.4415C16.0034 55.4415 14.6317 56.11 13.5983 57.0698C12.4461 58.1582 11.4493 59.9236 10.6994 62.5031C9.1814 67.7392 9.14482 74.6122 9.14482 81.151C9.14482 97.7935 12.4827 106.603 15.3541 111.085C16.4515 112.799 17.4849 113.905 18.2896 114.599C19.4447 113.567 20.4335 112.384 21.2251 111.085C24.0966 106.595 27.4345 97.7935 27.4345 81.151C27.4345 74.6122 27.3979 67.7392 25.8798 62.5031C25.13 59.9321 24.1332 58.1582 22.9809 57.0698C21.9476 56.11 20.5667 55.4415 18.2896 55.4415ZM9.14482 34.017C9.14482 43.2039 14.7689 46.8717 18.2896 46.8717C21.8104 46.8717 27.4345 43.2039 27.4345 34.017C27.4345 29.2779 26.4377 26.9555 25.3403 25.4129C24.6713 24.5133 23.9018 23.683 23.0449 22.9363L21.911 21.9422C21.1365 21.2775 20.3743 20.6004 19.6248 19.9111C18.6272 18.9815 17.7689 17.9292 17.0734 16.7832C15.9097 17.9305 14.8854 19.1951 14.019 20.5539C12.7387 22.3964 11.495 24.9245 10.5714 27.5297C9.62035 30.1863 9.14482 32.5345 9.14482 34.017ZM54.8506 89.4894C51.6808 89.1578 48.5628 88.4819 45.5595 87.4755C45.6692 85.3273 45.7241 83.1049 45.7241 80.8082V78.2715C48.559 79.5313 51.6316 80.414 54.8506 80.8425V64.0114C54.8506 59.4656 56.7776 55.1061 60.2075 51.8918C63.6375 48.6775 68.2895 46.8717 73.1403 46.8717H91.1098C90.3824 42.1334 88.4554 37.6271 85.4898 33.7294C82.5241 29.8316 78.606 26.6557 74.0629 24.467C69.5198 22.2783 64.4837 21.1404 59.3754 21.1484C54.2671 21.1564 49.2351 22.3101 44.6999 24.5131C43.9815 21.7114 42.7964 19.0334 41.1883 16.5775C47.1153 13.8324 53.6608 12.466 60.2707 12.594C66.8806 12.7219 73.3603 14.3404 79.1614 17.3124C84.9624 20.2844 89.9138 24.5225 93.5967 29.6679C97.2795 34.8132 99.5852 40.7144 100.319 46.8717H109.71C114.561 46.8717 119.213 48.6775 122.643 51.8918C126.073 55.1061 128 59.4656 128 64.0114V98.2906C128 102.836 126.073 107.196 122.643 110.41C119.213 113.624 114.561 115.43 109.71 115.43H73.1311C68.2804 115.43 63.6284 113.624 60.1984 110.41C56.7684 107.196 54.8415 102.836 54.8415 98.2906L54.8506 89.4894ZM100.328 55.4415C99.2919 64.1376 95.1311 72.245 88.5288 78.4323C81.9264 84.6195 73.275 88.5187 63.9954 89.4894V98.2906C63.9954 100.563 64.9589 102.743 66.6739 104.35C68.3889 105.957 70.7149 106.86 73.1403 106.86H109.72C112.145 106.86 114.471 105.957 116.186 104.35C117.901 102.743 118.864 100.563 118.864 98.2906V64.0114C118.864 61.7385 117.901 59.5587 116.186 57.9516C114.471 56.3444 112.145 55.4415 109.72 55.4415H100.328ZM91.1098 55.4415H73.1403C70.7149 55.4415 68.3889 56.3444 66.6739 57.9516C64.9589 59.5587 63.9954 61.7385 63.9954 64.0114V80.851C70.8367 79.9271 77.175 76.9527 82.0625 72.3726C86.9499 67.7924 90.1239 61.8526 91.1098 55.4415Z" fill="white"/>
</svg>
