<svg width="27" height="28" viewBox="0 0 27 28" fill="none" xmlns="http://www.w3.org/2000/svg">
<path d="M7.94444 7.38235V4.44118C7.94444 3.66113 8.2371 2.91303 8.75804 2.36145C9.27897 1.80987 9.98551 1.5 10.7222 1.5H16.2778C17.0145 1.5 17.721 1.80987 18.242 2.36145C18.7629 2.91303 19.0556 3.66113 19.0556 4.44118V7.38235M13.5 14.7353V14.75M1 10.3235C1 9.54348 1.29266 8.79538 1.81359 8.2438C2.33453 7.69223 3.04107 7.38235 3.77778 7.38235H23.2222C23.9589 7.38235 24.6655 7.69223 25.1864 8.2438C25.7073 8.79538 26 9.54348 26 10.3235V23.5588C26 24.3389 25.7073 25.087 25.1864 25.6385C24.6655 26.1901 23.9589 26.5 23.2222 26.5H3.77778C3.04107 26.5 2.33453 26.1901 1.81359 25.6385C1.29266 25.087 1 24.3389 1 23.5588V10.3235Z" stroke="#A75978" stroke-width="2" stroke-linecap="round" stroke-linejoin="round"/>
<path d="M1 16.2061C4.8772 18.2747 9.15837 19.3523 13.5 19.3523C17.8416 19.3523 22.1228 18.2747 26 16.2061" stroke="#A75978" stroke-width="2" stroke-linecap="round" stroke-linejoin="round"/>
</svg>
