<svg width="21" height="20" viewBox="0 0 21 20" fill="none" xmlns="http://www.w3.org/2000/svg">
<path d="M9.5499 3.2311H4.8032C3.23027 3.2311 1.95517 4.47053 1.95517 5.99944V15.2273C1.95517 16.7562 3.23027 17.9956 4.8032 17.9956H14.2966C15.8695 17.9956 17.1446 16.7562 17.1446 15.2273L17.1446 10.6134M6.70188 13.3817L10.1559 12.7052C10.3393 12.6693 10.5076 12.5815 10.6398 12.4529L18.372 4.933C18.7427 4.57246 18.7424 3.98804 18.3714 3.6278L16.7335 2.03748C16.3626 1.6774 15.7617 1.67764 15.3911 2.03803L7.65815 9.55872C7.52618 9.68707 7.43607 9.85039 7.39909 10.0283L6.70188 13.3817Z" stroke="#DAB785" stroke-width="2" stroke-linecap="round" stroke-linejoin="round"/>
</svg>
