<svg width="23" height="23" viewBox="0 0 23 23" fill="none" xmlns="http://www.w3.org/2000/svg">
<path d="M4.38095 6.54311H19.0476M9.88095 16.249V10.4255M13.5476 16.249V10.4255M15.381 20.1313H8.04762C7.0351 20.1313 6.21428 19.2623 6.21428 18.1902V7.5137C6.21428 6.97766 6.62469 6.54311 7.13095 6.54311H16.2976C16.8039 6.54311 17.2143 6.97766 17.2143 7.5137V18.1902C17.2143 19.2623 16.3935 20.1313 15.381 20.1313ZM9.88095 6.54311H13.5476C14.0539 6.54311 14.4643 6.10857 14.4643 5.57252V4.60194C14.4643 4.06589 14.0539 3.63135 13.5476 3.63135H9.88095C9.37469 3.63135 8.96428 4.06589 8.96428 4.60194V5.57252C8.96428 6.10857 9.37469 6.54311 9.88095 6.54311Z" stroke="#4DA7B3" stroke-width="2" stroke-linecap="round" stroke-linejoin="round"/>
</svg>
