<svg width="632" height="632" viewBox="0 0 632 632" fill="none" xmlns="http://www.w3.org/2000/svg">
<g clip-path="url(#clip0_577_1962)">
<path d="M267.362 99.1167C275.645 96.7646 284.128 95.2327 292.453 93.0756C310.685 88.1962 328.834 83.0133 346.893 77.529C372.164 69.7552 396.978 60.5094 422.49 53.5148C437.336 49.4445 452.54 45.4787 468.038 45.3886C481.906 45.3081 496.447 48.6323 508.559 55.4179C529.155 66.9547 541.168 86.1005 549.831 107.38C552.904 114.852 555.559 122.489 557.783 130.256L572.429 184.535C583.501 226.105 591.318 257.114 568.902 296.855C560.601 311.575 548.88 323.752 539.805 337.984C535.129 345.316 530.494 352.809 526.316 360.438C519.524 372.843 513.414 385.539 504.625 396.741C499.598 403.15 493.722 407.97 486.575 411.865C485.723 384.816 485.989 357.706 485.347 330.643L484.313 282.633C483.915 265.296 483.461 247.904 484.072 230.567C485.072 202.173 492.161 174.297 491.522 145.79C491.315 136.527 490.331 125.891 484.65 118.205C480.937 113.178 475.679 111.088 469.698 109.97C459.15 107.997 447.634 108.44 436.892 108.175C415.855 107.656 394.722 107.629 373.707 106.557C351.164 105.407 329.242 100.691 306.765 99.5524C298.275 99.1222 289.77 99.2589 281.273 99.3401C276.876 99.3817 271.978 99.8304 267.641 99.1639C267.548 99.1494 267.455 99.1324 267.362 99.1167Z" fill="#A75978"/>
<path d="M200.581 110.145C201.025 109.428 201.469 108.678 201.989 108.014C204.855 104.354 210.023 102.278 214.425 101.289C219.402 100.172 224.626 100.044 229.71 99.9177C236.812 99.7759 243.916 99.7151 251.019 99.7353C256.487 99.7208 261.93 99.852 267.362 99.1166C267.455 99.1323 267.548 99.1493 267.641 99.1638C271.978 99.8304 276.876 99.3817 281.273 99.34C289.77 99.2588 298.275 99.1221 306.765 99.5523C329.242 100.691 351.164 105.407 373.707 106.557C394.722 107.629 415.855 107.656 436.892 108.175C447.634 108.44 459.15 107.997 469.698 109.97C475.679 111.088 480.937 113.178 484.65 118.205C490.331 125.891 491.315 136.527 491.522 145.79C492.161 174.297 485.072 202.173 484.073 230.567C483.461 247.904 483.915 265.296 484.313 282.633L485.347 330.643C485.989 357.706 485.723 384.816 486.575 411.865L486.81 465.751C486.834 473.25 487.628 486.696 486.149 493.398C485.282 497.16 483.378 500.603 480.653 503.338C479.848 504.134 478.962 504.943 478.03 505.581C476.669 510.71 474.957 515.734 470.078 518.592C467.881 519.882 465.529 520.338 463.045 520.73C460.317 525.594 457.071 529.198 451.485 530.784C450.072 531.185 448.612 531.408 447.155 531.562C443.644 536.212 439.039 539.663 433.161 540.496C425.032 541.65 415.052 540.459 406.736 540.119C389.115 539.394 371.161 538.295 353.528 539.119C340.533 539.332 327.532 540.499 314.531 540.326C292.289 540.033 270.149 538.234 247.882 538.326C229.306 538.403 210.786 540.085 192.233 540.311C184.962 540.4 176.074 540.681 170.543 535.228C165.576 530.328 163.959 523.224 163.419 516.503C162.948 510.642 163.358 504.758 163.643 498.897C164.008 491.946 164.322 484.992 164.584 478.036C165.153 460.064 165.317 442.08 165.077 424.1C163.778 337.846 163.086 251.583 163.003 165.319C162.959 157.914 162.407 146.066 164.503 139.235C166.374 133.136 169.345 133.249 173.26 129.43C174.977 127.756 176.263 125.637 177.848 123.844C179.756 121.685 182.949 120.35 185.461 119.036C185.938 118.027 186.543 117.142 187.236 116.267C190.385 112.294 195.691 110.654 200.581 110.145ZM253.434 102.425C242.912 102.185 223.439 101.394 213.823 104.099C210.384 105.066 207.278 106.706 204.675 109.172L204.488 109.352C215.442 108.137 226.506 110.099 237.463 109.504C241.629 109.771 245.821 109.895 249.978 110.265C259.691 111.131 269.347 112.405 279.083 113.08C296.82 114.192 314.59 114.683 332.362 114.553L402.348 113.613C419.808 113.282 437.756 112.477 455.173 113.96C460.184 114.387 465.44 115.317 468.958 119.254C471.019 121.562 471.883 124.462 472.306 127.462C473.423 135.402 473.154 143.861 473.472 151.892C474.23 169.829 474.758 187.775 475.055 205.726C475.43 234.554 475.578 263.386 475.5 292.217C475.407 306.129 475.028 320.039 475.003 333.951C475.036 350.331 475.222 366.711 475.561 383.088C475.716 393.361 475.728 403.662 476.135 413.932C476.613 433.185 477.194 452.436 477.879 471.682C478.157 481.607 478.077 491.577 478.53 501.493C480.724 498.984 482.594 496.429 483.338 493.09C485.02 485.511 484.187 474.111 484.143 466.217L483.829 420.336C484.063 414.941 483.702 409.498 483.631 404.094L483.36 374.994C483.058 349.977 482.628 324.962 482.07 299.95C481.644 279.35 481.03 258.685 481.403 238.081C481.591 227.623 482.07 217.282 483.313 206.887C485.828 185.838 490.087 164.545 488.961 143.251C488.501 134.553 487.017 123.157 479.959 117.091C475.953 113.646 470.467 112.49 465.366 111.879C452.843 110.381 439.82 110.634 427.214 110.498C409.714 110.309 392.034 110.067 374.559 109.156C363.748 108.545 352.965 107.518 342.234 106.076C333.516 104.933 324.82 103.542 316.062 102.739C303.074 101.549 290.129 101.929 277.115 102.099C269.237 102.203 261.297 101.947 253.434 102.425ZM232.779 112.043C222.923 111.764 206.415 110.49 197.198 113.205C194.578 113.977 192.162 115.266 190.165 117.145C189.588 117.688 189.081 118.284 188.588 118.903C198.8 118.823 209.131 119.32 219.334 119.766C219.437 119.784 219.539 119.803 219.642 119.819C225.682 120.772 234.008 120.166 240.274 120.186C257.472 120.322 274.67 120.127 291.861 119.601C328.432 118.849 365.013 118.607 401.592 118.875L424.545 119.039C432.368 119.113 440.737 118.917 448.399 120.646C453 121.684 456.466 123.32 459.416 127.159C462.693 131.422 463.798 136.933 464.165 142.176C464.548 147.615 464.421 153.106 464.424 158.557C464.437 170.823 464.069 183.058 463.952 195.319L463.847 274.957C463.867 302.824 464.09 330.691 464.517 358.555C464.887 377.117 465.566 395.673 465.622 414.241L465.751 476.324C465.733 490.065 466.433 504.001 464.242 517.595C468.155 516.478 470.92 515.148 472.969 511.414C474.812 508.063 475.312 504.369 475.586 500.604C476.355 490.087 475.308 479.039 474.972 468.482C474.401 450.578 474.009 432.636 473.176 414.741C472.642 385.7 472.404 356.655 472.46 327.609C472.584 288.294 473.352 249.046 472.645 209.726C472.321 191.71 471.534 173.743 470.874 155.739L470.275 138.941C470.155 135.377 470.198 131.696 469.732 128.163C469.405 125.696 468.806 123.267 467.168 121.319C463.943 117.487 458.129 116.772 453.445 116.407C438.524 115.244 423.391 115.694 408.436 115.9C385.029 116.223 361.601 116.875 338.194 116.988C321.524 117.068 304.732 117.038 288.08 116.129C275.26 115.429 262.515 113.933 249.72 112.924C244.081 112.479 238.424 112.401 232.779 112.043ZM219.576 122.533C212.805 122.122 191.715 120.992 186.088 122.238C183.972 122.706 182.104 123.644 180.484 125.082C179.579 125.885 178.747 126.582 178.626 127.828C180.011 128.967 210.075 127.711 215.069 127.541C226.181 127.371 237.293 127.025 248.407 127.086C285.689 127.29 322.98 128.836 360.259 129.35C372.5 129.518 384.776 129.797 397.018 129.573C406.739 129.395 416.938 128.434 426.609 129.436C431.183 129.911 436.839 131.68 440.156 134.945C443.236 137.98 445.245 142.184 446.208 146.365C448.436 156.007 447.742 166.928 447.785 176.787C447.885 189.596 447.87 202.406 447.739 215.215C447.208 255.854 447.037 296.497 447.223 337.139C447.169 353.63 447.312 370.121 447.652 386.609C447.773 394.312 447.529 402.122 448.057 409.803C448.258 429.754 448.603 449.703 449.093 469.649C449.372 479.517 449.586 489.387 449.735 499.258C449.899 508.893 450.96 519.243 448.504 528.621C453.179 527.464 456.691 525.659 459.32 521.394C461.141 518.444 461.903 515.12 462.31 511.71C463.594 501.023 462.931 489.704 462.946 478.947L462.881 413.88C462.989 388.013 461.832 362.088 461.48 336.213C461.058 304.966 461.375 273.7 461.32 242.451C461.229 223.461 461.292 204.471 461.511 185.483C461.683 176.131 461.741 166.778 461.687 157.425C461.665 151.662 461.761 145.838 461.246 140.096C460.832 135.491 459.61 130.927 456.281 127.526C453.494 124.68 449.788 123.254 445.903 122.694C439.027 121.703 431.865 121.792 424.927 121.685L389.877 121.483C356.712 121.289 323.546 121.527 290.387 122.196C266.805 122.563 243.158 123.228 219.576 122.533ZM210.238 130.422C203.848 130.694 197.461 130.78 191.068 130.929C186.321 131.039 180.378 130.668 175.822 132.052C173.677 132.712 171.752 133.943 170.253 135.612C164.988 141.37 165.593 155.586 166.103 163.206C166.131 163.63 166.163 164.054 166.198 164.477C167.187 183.584 169.188 202.704 169.37 221.842C169.643 250.487 167.763 279.062 167.769 307.715L168.791 431.895C168.824 448.359 168.595 464.823 168.105 481.28C167.699 492.722 166.468 504.427 167.251 515.848C167.65 521.672 168.956 528.948 173.448 533.111C176.478 535.916 180.641 536.509 184.604 536.774C193.022 537.339 201.642 536.706 210.066 536.336C222.368 535.712 234.681 535.324 246.998 535.173C258.955 535.166 270.911 535.371 282.861 535.787C292 536.16 301.135 536.82 310.282 536.944C325.48 537.151 340.564 536.25 355.741 535.802C372.392 535.577 389.115 536.283 405.748 537.015C413.722 537.367 422.057 538.441 430.013 537.987C435.022 537.703 439.388 535.845 442.702 532.003C445.298 528.991 446.418 525.319 446.834 521.44C447.578 514.497 446.976 507.266 446.791 500.286L446.325 473.917L445.43 432.21C445.304 424.384 445.659 416.404 445.072 408.606C444.579 401.857 444.863 394.802 444.804 388.016L444.668 343.304C444.476 303.085 444.588 262.866 445.005 222.649C445.269 207.204 445.344 191.758 445.23 176.312C445.159 168.319 445.338 160.204 444.52 152.246C443.903 146.218 442.415 140.015 437.379 136.098C433.661 133.203 428.569 132.135 423.962 131.794C415.787 131.189 407.344 131.945 399.141 132.073C385.211 132.239 371.28 132.189 357.352 131.923L271.696 129.962C257.472 129.489 243.237 129.438 229.01 129.809C222.813 129.921 216.388 129.663 210.238 130.422Z" fill="url(#paint0_linear_577_1962)"/>
<path d="M253.434 102.425C261.297 101.947 269.237 102.203 277.115 102.1C290.129 101.929 303.074 101.549 316.062 102.739C324.82 103.542 333.516 104.933 342.234 106.076C352.965 107.518 363.748 108.545 374.559 109.156C392.034 110.067 409.714 110.309 427.214 110.498C439.82 110.634 452.843 110.382 465.366 111.879C470.467 112.49 475.953 113.646 479.959 117.091C487.017 123.157 488.501 134.553 488.961 143.251C490.087 164.545 485.828 185.838 483.313 206.887C482.07 217.282 481.591 227.623 481.403 238.081C481.03 258.685 481.644 279.35 482.07 299.95C482.628 324.962 483.058 349.977 483.36 374.994L483.631 404.094C483.702 409.498 484.063 414.941 483.829 420.336C483.461 418.018 483.644 415.432 483.613 413.077C481.122 413.463 478.651 413.729 476.135 413.932C475.728 403.662 475.716 393.361 475.562 383.088C475.222 366.711 475.036 350.331 475.003 333.951C475.028 320.04 475.407 306.129 475.5 292.217C475.578 263.386 475.43 234.554 475.055 205.726C474.758 187.775 474.23 169.829 473.472 151.892C473.154 143.861 473.423 135.402 472.306 127.462C471.883 124.462 471.019 121.562 468.958 119.255C465.44 115.317 460.184 114.387 455.173 113.96C437.756 112.478 419.808 113.282 402.348 113.613L332.362 114.553C314.59 114.684 296.82 114.192 279.083 113.081C269.346 112.405 259.691 111.131 249.978 110.265C245.821 109.895 241.629 109.771 237.463 109.504C240.004 108.627 242.509 106.927 245.003 105.831C247.741 104.629 250.838 103.854 253.434 102.425Z" fill="#A75978"/>
<path d="M204.487 109.352L204.675 109.172C207.277 106.706 210.383 105.066 213.823 104.099C223.439 101.394 242.912 102.185 253.434 102.425C250.838 103.854 247.741 104.629 245.003 105.831C242.509 106.927 240.004 108.627 237.463 109.504C226.506 110.099 215.442 108.137 204.487 109.352Z" fill="#FFFFFA"/>
<path d="M188.588 118.903C189.081 118.284 189.588 117.688 190.165 117.145C192.162 115.266 194.578 113.977 197.198 113.205C206.415 110.49 222.923 111.764 232.779 112.043C230.928 113.24 229.09 114.441 227.346 115.793C225.997 116.837 224.01 118.964 222.52 119.638C221.786 119.97 220.138 119.782 219.334 119.766C209.131 119.32 198.799 118.823 188.588 118.903Z" fill="#FFFFFA"/>
<path d="M232.779 112.043C238.424 112.401 244.081 112.479 249.72 112.924C262.515 113.933 275.26 115.43 288.08 116.129C304.732 117.038 321.524 117.068 338.194 116.988C361.601 116.875 385.029 116.223 408.436 115.9C423.391 115.694 438.524 115.244 453.445 116.407C458.129 116.772 463.943 117.487 467.168 121.319C468.806 123.267 469.405 125.696 469.732 128.163C470.198 131.696 470.155 135.377 470.275 138.941L470.874 155.739C471.534 173.743 472.321 191.71 472.645 209.726C473.352 249.046 472.584 288.294 472.46 327.609C472.404 356.655 472.642 385.7 473.176 414.741L465.622 414.241C465.566 395.673 464.887 377.117 464.517 358.555C464.09 330.691 463.867 302.824 463.847 274.957L463.952 195.319C464.069 183.058 464.437 170.823 464.424 158.557C464.421 153.106 464.548 147.615 464.165 142.176C463.798 136.933 462.693 131.422 459.416 127.159C456.466 123.32 453 121.684 448.399 120.646C440.737 118.917 432.368 119.113 424.545 119.039L401.592 118.875C365.013 118.607 328.432 118.849 291.861 119.601C274.67 120.127 257.472 120.323 240.274 120.186C234.008 120.166 225.682 120.772 219.642 119.819C219.539 119.803 219.437 119.784 219.334 119.766C220.138 119.782 221.786 119.97 222.52 119.638C224.01 118.964 225.997 116.837 227.346 115.793C229.09 114.441 230.928 113.24 232.779 112.043Z" fill="#A75978"/>
<path d="M219.576 122.533C243.158 123.228 266.805 122.563 290.387 122.196C323.546 121.527 356.712 121.289 389.877 121.484L424.927 121.685C431.865 121.792 439.027 121.703 445.902 122.694C449.788 123.254 453.494 124.68 456.281 127.526C459.61 130.927 460.832 135.491 461.246 140.096C461.761 145.838 461.665 151.662 461.687 157.425C461.741 166.778 461.683 176.131 461.511 185.483C461.292 204.471 461.229 223.461 461.32 242.451C461.375 273.7 461.058 304.966 461.48 336.213C461.832 362.089 462.989 388.013 462.881 413.88C457.719 413.303 452.932 411.488 448.057 409.803C447.529 402.122 447.773 394.312 447.652 386.609C447.312 370.121 447.169 353.63 447.223 337.139C447.037 296.497 447.208 255.854 447.739 215.215C447.87 202.406 447.885 189.596 447.785 176.787C447.742 166.928 448.436 156.007 446.208 146.365C445.245 142.184 443.236 137.98 440.156 134.945C436.839 131.68 431.183 129.911 426.609 129.436C416.938 128.434 406.739 129.395 397.018 129.573C384.776 129.797 372.5 129.518 360.258 129.35C322.98 128.836 285.689 127.29 248.407 127.086C237.293 127.025 226.181 127.371 215.069 127.542C216.45 125.704 217.847 124.055 219.576 122.533Z" fill="#A75978"/>
<path d="M215.069 127.541C210.075 127.711 180.011 128.967 178.625 127.828C178.747 126.582 179.579 125.885 180.484 125.082C182.104 123.644 183.972 122.706 186.088 122.238C191.715 120.993 212.805 122.122 219.576 122.533C217.847 124.055 216.45 125.704 215.069 127.541Z" fill="#FFFFFA"/>
<path d="M210.238 130.423C216.388 129.663 222.813 129.921 229.01 129.809C243.237 129.438 257.472 129.489 271.696 129.962L357.352 131.923C371.28 132.189 385.211 132.239 399.141 132.073C407.344 131.945 415.787 131.189 423.962 131.794C428.569 132.135 433.661 133.203 437.379 136.098C442.415 140.015 443.903 146.218 444.52 152.246C445.338 160.204 445.159 168.319 445.23 176.312C445.344 191.758 445.269 207.204 445.005 222.649C444.588 262.866 444.476 303.085 444.668 343.304L444.804 388.017C444.863 394.802 444.579 401.857 445.072 408.606C430.291 400.814 418.052 389.313 407.554 376.484L406.615 374.657C410.899 374.716 417.49 374.707 420.789 371.559C421.953 370.448 422.672 368.976 422.687 367.356C422.699 365.727 421.986 364.264 420.826 363.147C416.901 359.364 404.242 360.712 399.046 360.786C393.698 349.22 387.905 337.898 382.804 326.205C388.56 326.185 394.315 326.202 400.07 326.255C404.607 326.341 409.399 326.893 413.895 326.199C416.278 325.832 418.814 325.085 420.681 323.502C421.953 322.422 422.749 320.947 422.854 319.268C422.946 317.848 422.385 316.639 421.385 315.651C419.586 313.877 416.845 313.041 414.411 312.627C409.698 311.828 404.573 312.189 399.796 312.214L377.922 312.312C374.05 303.163 371.396 289.302 369.732 279.498L396.981 279.576C402.378 279.618 408.541 280.289 413.84 279.291C416.003 278.883 418.172 278.007 419.888 276.604C421.144 275.575 422.252 274.169 422.332 272.483C422.391 271.184 421.78 269.797 420.872 268.882C419.015 267.013 415.96 266.159 413.42 265.688C406.307 264.369 398.49 264.734 391.272 264.773C383.154 264.799 375.035 264.879 366.918 265.012L367.477 264.817C368.341 263.484 366.773 238.245 366.649 234.203C375.705 233.943 384.766 233.878 393.824 234.01C400.169 234.085 406.881 234.702 413.164 233.89C415.5 233.588 418.033 232.993 419.928 231.53C421.045 230.669 421.872 229.51 422.02 228.082C422.178 226.534 421.564 224.873 420.502 223.748C418.617 221.744 415.617 220.884 412.985 220.409C406.008 219.151 398.416 219.555 391.355 219.612C379.771 219.704 368.159 220.089 356.577 219.926C359.573 219.617 362.727 219.788 365.742 219.763C365.144 207.267 363.054 197.463 355.299 187.327C365.529 187.344 375.771 186.946 386.001 187.079C395.136 187.198 404.773 188.272 413.833 186.963C416.225 186.617 418.746 185.805 420.616 184.225C421.727 183.288 422.641 182.002 422.733 180.512C422.82 179.146 422.138 177.953 421.209 177.003C419.641 175.4 417.799 174.655 415.623 174.269C408.631 173.028 396.963 173.507 389.618 173.554L344.039 174.12C339.086 169.554 333.682 165.648 327.949 162.129C317.025 155.423 305.829 150.893 293.405 147.827C261.795 140.027 234.565 145.32 203.528 152.774C204.607 144.771 208.188 137.962 211.856 130.931L211.727 130.62L210.238 130.423Z" fill="#A75978"/>
<path d="M166.198 164.477C166.163 164.054 166.131 163.63 166.103 163.206C165.593 155.586 164.988 141.37 170.253 135.612C171.752 133.943 173.677 132.712 175.822 132.052C180.378 130.668 186.321 131.039 191.068 130.929C197.461 130.78 203.848 130.694 210.238 130.422L211.727 130.62L211.856 130.931C208.188 137.962 204.607 144.771 203.528 152.774C196.159 154.856 188.748 156.769 181.472 159.171C176.41 160.842 171.351 163.189 166.198 164.477Z" fill="#FFFFFA"/>
<path d="M166.198 164.477C171.351 163.189 176.41 160.842 181.472 159.171C188.748 156.769 196.159 154.856 203.528 152.774C234.565 145.32 261.795 140.027 293.405 147.828C305.829 150.893 317.025 155.423 327.949 162.129C333.682 165.648 339.086 169.554 344.039 174.12C335.114 174.375 318.873 173.429 310.714 175.183C308.828 175.588 307.006 176.197 305.666 177.648C304.543 178.863 304.188 180.132 304.253 181.772C304.321 183.487 305.253 184.861 306.539 185.947C307.793 187.005 309.106 187.503 310.714 187.731C315.333 188.387 320.583 187.72 325.249 187.621C335.238 187.409 345.316 187.198 355.299 187.327C363.054 197.463 365.144 207.267 365.742 219.763C362.727 219.788 359.573 219.617 356.577 219.926C346.138 219.945 335.699 220.044 325.261 220.223C320.9 220.333 316.086 220.114 311.815 220.93C309.705 221.334 307.47 222.133 305.962 223.735C304.724 225.05 304.314 226.755 304.448 228.531C304.581 230.289 305.487 231.526 306.851 232.587C308.145 233.595 309.705 234.156 311.319 234.387C316.46 235.126 322.9 234.534 328.171 234.515C340.998 234.477 353.824 234.373 366.65 234.203C366.773 238.245 368.341 263.484 367.477 264.817L366.918 265.012L336.509 265.362C329.251 265.393 318.929 264.935 311.998 266.126C309.887 266.488 307.609 267.209 306.058 268.755C304.995 269.814 304.518 271.138 304.55 272.629C304.59 274.524 305.328 276.271 306.768 277.522C308.371 278.915 310.507 279.522 312.578 279.759C319.219 280.519 328.699 279.564 335.599 279.387C346.924 279.097 358.404 279.173 369.732 279.498C371.396 289.302 374.05 303.163 377.922 312.312C337.67 312.244 297.418 311.925 257.169 311.356L224.952 311.056C217.713 311.056 210.334 311.007 203.13 311.785C200.459 312.075 197.95 312.615 195.967 314.574C194.801 315.725 193.979 317.092 193.959 318.768C193.937 320.546 194.786 322.283 196.09 323.471C197.981 325.196 200.718 325.403 203.164 325.502C208.247 325.702 213.44 325.335 218.531 325.212C229.045 324.862 239.565 324.711 250.085 324.758L382.804 326.205C387.905 337.898 393.698 349.22 399.046 360.786C364.747 360.801 330.448 360.414 296.158 359.623C273.966 358.875 251.76 358.632 229.556 358.891C220.501 359.024 211.152 358.839 202.136 359.728C199.835 359.953 197.601 360.141 195.864 361.814C194.65 362.983 193.988 364.338 194.048 366.038C194.113 367.878 194.82 369.627 196.201 370.871C198.21 372.676 200.987 373.13 203.592 373.272C210.237 373.636 217.115 373.118 223.774 372.991C234.979 372.761 246.187 372.686 257.394 372.766L365.603 374.238L391.516 374.309C396.432 374.312 401.767 373.926 406.615 374.657L407.554 376.484C409.214 386.881 412.365 397.222 412.624 407.825C404.301 407.443 395.895 407.618 387.563 407.634C374.55 407.678 361.538 407.634 348.526 407.501C334.133 407.288 319.762 406.603 305.374 406.196C281.852 405.529 258.141 405.168 234.613 405.517C226.977 405.626 219.341 405.798 211.708 406.032C208.29 406.149 204.675 406.048 201.3 406.557C199.42 406.841 197.512 407.412 196.074 408.711C194.687 409.967 194.026 411.565 194.015 413.423C194.005 415.136 194.406 416.614 195.691 417.805C197.373 419.363 199.781 419.866 202.002 419.95C209.944 420.246 218.099 419.475 226.056 419.255C238.525 418.999 250.996 418.945 263.466 419.092C313.463 419.598 363.425 421.178 413.435 420.619C412.939 427.467 412.457 434.38 411.078 441.119C410.174 445.554 408.748 449.936 407.544 454.299C383.06 454.611 358.573 454.76 334.087 454.747C318.737 454.589 303.419 453.852 288.078 453.411C271.065 452.952 254.046 452.733 237.027 452.753C229.518 452.746 222.01 452.843 214.504 453.043C209.834 453.17 204.911 453.142 200.299 453.92C198.308 454.256 196.138 454.932 194.648 456.361C193.737 457.237 193.192 458.373 193.178 459.644C193.153 461.891 194.155 464.199 195.76 465.761C197.418 467.371 199.667 467.936 201.911 468.1C208.511 468.581 215.586 467.868 222.225 467.68C231.809 467.413 241.397 467.342 250.984 467.467L340.104 468.643C360.663 468.754 381.397 467.887 401.925 468.68C391.102 492.256 373.476 516.925 355.741 535.802C340.564 536.25 325.48 537.151 310.282 536.944C301.135 536.82 292 536.16 282.861 535.787C270.911 535.371 258.955 535.166 246.998 535.173C234.681 535.324 222.368 535.712 210.066 536.336C201.642 536.706 193.022 537.339 184.604 536.774C180.641 536.509 176.478 535.916 173.448 533.111C168.956 528.948 167.65 521.672 167.251 515.848C166.468 504.427 167.699 492.722 168.105 481.28C168.595 464.823 168.824 448.359 168.791 431.895L167.769 307.715C167.763 279.062 169.643 250.487 169.37 221.842C169.188 202.704 167.187 183.584 166.198 164.477ZM217.583 161.228C211.615 161.519 205.004 162.328 200.717 166.997C198.349 169.576 197.186 172.784 196.65 176.188C195.913 180.86 196.245 185.793 196.363 190.505L196.864 208.266C197.198 219.088 197.09 229.966 197.775 240.77C198.098 245.876 199.176 250.611 203.164 254.178C212.706 262.713 242.402 263.247 255.014 262.308C258.983 262.02 262.937 261.541 266.86 260.872C273.297 259.527 279.239 258.082 283.092 252.265C285.067 249.284 286.272 246.021 286.942 242.518C289.719 227.998 288.338 210.302 287.734 195.512C287.455 188.66 287.617 181.37 286.174 174.646C285.361 170.861 283.345 166.958 280.056 164.772C277.946 163.371 275.28 162.505 272.78 162.207C264.494 161.22 255.609 162.427 247.238 162.31C237.383 162.172 227.418 160.972 217.583 161.228Z" fill="#D4D485"/>
<path d="M266.86 260.872C262.937 261.541 258.983 262.02 255.014 262.308C242.402 263.247 212.706 262.713 203.164 254.178C199.176 250.61 198.098 245.876 197.775 240.77C197.09 229.966 197.198 219.088 196.864 208.266L196.363 190.505C196.245 185.793 195.913 180.86 196.65 176.188C197.186 172.784 198.349 169.576 200.717 166.997C205.004 162.328 211.615 161.519 217.583 161.228C227.418 160.972 237.383 162.172 247.238 162.31C255.609 162.427 264.494 161.22 272.78 162.207C275.28 162.505 277.946 163.371 280.056 164.772C283.345 166.958 285.361 170.861 286.174 174.646C287.617 181.37 287.455 188.66 287.734 195.512C288.338 210.302 289.719 227.998 286.942 242.518C286.272 246.021 285.067 249.284 283.092 252.265C279.239 258.082 273.297 259.527 266.86 260.872ZM215.059 164.3C210.464 164.741 205.711 165.623 202.616 169.415C200.542 171.955 199.956 175.136 199.646 178.321C199.269 182.209 199.593 186.285 199.673 190.194C199.811 197.365 199.99 204.536 200.209 211.705L200.722 231.811C200.829 235.584 200.789 239.437 201.249 243.184C201.586 245.927 202.379 248.452 203.737 250.867C206.426 247.613 208.806 244.067 211.666 240.964C218.514 233.533 228.853 227.882 238.987 226.961C248.096 226.132 256.433 228.714 264.199 233.335C270.866 237.655 277.146 243.808 280.057 251.343C281.886 248.407 282.998 245.563 283.643 242.155C286.472 227.2 285.115 209.022 284.543 193.753C284.324 187.911 284.661 181.615 283.307 175.923C282.424 172.21 280.517 168.75 277.189 166.71C275.21 165.497 273.033 165.087 270.754 164.9C266.35 164.539 261.873 164.898 257.461 165.035C253.193 165.146 248.923 165.165 244.654 165.091C234.836 164.971 224.854 163.642 215.059 164.3ZM238.765 230.023C227.786 231.294 217.809 237.848 211.039 246.418C209.532 248.325 207.627 250.603 206.831 252.914C207.019 253.698 207.199 253.708 207.852 254.203C208.499 254.168 208.572 254.192 209.031 253.689C210.873 251.672 212.282 249.181 214.161 247.11C220.961 239.613 230.431 234.295 240.624 233.542C242.121 233.432 243.673 233.378 245.173 233.419C255.93 234.137 264.777 239.021 271.817 247.117C273.033 248.515 275.899 253.113 277.067 253.819L277.419 253.526C277.616 250.964 273.645 245.836 271.987 243.879C264.994 235.775 255.069 230.779 244.394 229.988C242.583 229.85 240.566 229.788 238.765 230.023ZM242.025 236.51C231.346 237.416 221.865 242.344 214.938 250.579C213.613 252.155 212.557 253.785 211.568 255.588C222.15 258.596 233.873 259.139 244.826 259.411C254.64 259.427 265.119 259.113 274.484 255.875C270.413 247.962 261.263 240.511 252.788 237.853C249.406 236.793 245.569 236.279 242.025 236.51Z" fill="#3A4A56"/>
<path d="M203.737 250.867C202.379 248.452 201.586 245.927 201.249 243.184C200.789 239.437 200.829 235.584 200.722 231.811L200.209 211.705C199.99 204.536 199.811 197.365 199.673 190.194C199.593 186.285 199.269 182.21 199.646 178.321C199.955 175.136 200.542 171.955 202.616 169.415C205.711 165.623 210.464 164.741 215.059 164.3C224.854 163.642 234.836 164.971 244.654 165.092C248.923 165.165 253.193 165.146 257.461 165.035C261.873 164.898 266.35 164.539 270.754 164.9C273.033 165.087 275.21 165.497 277.189 166.71C280.517 168.75 282.424 172.21 283.307 175.923C284.661 181.615 284.324 187.911 284.543 193.753C285.115 209.022 286.472 227.2 283.643 242.155C282.998 245.563 281.886 248.408 280.057 251.343C277.146 243.808 270.866 237.655 264.199 233.335C256.433 228.714 248.096 226.132 238.987 226.961C228.853 227.882 218.514 233.533 211.666 240.964C208.806 244.067 206.426 247.613 203.737 250.867ZM241.18 178.466C236.813 179.023 233.301 180.718 230.596 184.304C225.89 190.543 225.335 200.179 226.552 207.617C227.411 212.871 229.651 217.844 234.137 220.969C237.218 223.115 240.613 224.076 244.351 223.775C248.923 222.635 252.343 220.701 254.903 216.58C258.993 209.996 259.379 199.217 257.476 191.895C256.251 187.186 253.597 182.85 249.276 180.392C246.882 179.029 243.945 178.261 241.18 178.466Z" fill="#D4D485"/>
<path d="M353.528 539.119C338.339 554.734 322.959 568.417 302.733 577.184C272.108 590.457 239.033 590.3 208.105 578.049C156.077 557.438 111.197 501.974 84.6538 454.207C77.8962 442.045 72.1205 429.337 66.6199 416.564C62.8976 407.921 60.2875 398.685 57.6938 389.652C55.7355 382.829 53.7765 375.92 52.3817 368.958C46.2669 338.444 48.1484 306.734 59.7024 277.704C73.3589 243.392 96.7985 205.557 127.463 184.082C138.463 176.378 150.71 170.614 163.003 165.319C163.086 251.583 163.778 337.846 165.077 424.1C165.317 442.08 165.153 460.064 164.584 478.036C164.322 484.992 164.008 491.946 163.643 498.897C163.358 504.758 162.948 510.642 163.419 516.503C163.959 523.224 165.576 530.328 170.543 535.228C176.074 540.681 184.962 540.4 192.233 540.311C210.786 540.085 229.306 538.403 247.882 538.326C270.149 538.234 292.289 540.033 314.531 540.326C327.532 540.499 340.533 539.332 353.528 539.119Z" fill="#D4D485"/>
<path d="M355.299 187.327C345.316 187.198 335.238 187.409 325.248 187.621C320.583 187.72 315.333 188.387 310.714 187.731C309.106 187.503 307.793 187.005 306.538 185.947C305.253 184.861 304.321 183.487 304.253 181.772C304.188 180.132 304.543 178.863 305.666 177.648C307.006 176.198 308.828 175.588 310.714 175.183C318.873 173.429 335.114 174.375 344.039 174.12L389.618 173.554C396.963 173.507 408.631 173.028 415.623 174.269C417.799 174.655 419.641 175.4 421.209 177.003C422.138 177.953 422.82 179.146 422.733 180.512C422.641 182.002 421.727 183.288 420.616 184.225C418.746 185.805 416.225 186.618 413.833 186.963C404.773 188.272 395.136 187.198 386.001 187.079C375.771 186.946 365.529 187.344 355.299 187.327ZM346.575 176.537C339.128 176.494 331.68 176.531 324.233 176.646C320.663 176.72 316.895 176.606 313.361 177.143C311.402 177.441 308.655 177.986 307.244 179.482C306.712 180.046 306.409 180.71 306.521 181.504C306.715 182.888 308.327 184.362 309.504 184.972C310.448 185.462 311.522 185.584 312.571 185.639C317.432 185.892 322.431 185.495 327.304 185.457C336.225 185.387 345.125 185.484 354.04 185.149C364.745 185.228 375.444 184.774 386.149 184.905C394.009 185.001 404.875 185.969 412.395 185.071C414.719 184.794 417.413 183.96 419.231 182.431C420.067 181.73 420.277 181.153 420.406 180.096C420.184 179.501 419.974 179.059 419.515 178.62C418.098 177.266 416.074 176.756 414.188 176.481C405.989 175.287 396.006 175.864 387.618 175.929C373.936 175.973 360.254 176.176 346.575 176.537Z" fill="#3A4A56"/>
<path d="M346.575 176.537C360.254 176.176 373.936 175.973 387.618 175.929C396.006 175.864 405.989 175.287 414.188 176.481C416.074 176.756 418.098 177.266 419.515 178.62C419.974 179.059 420.184 179.501 420.406 180.096C420.277 181.153 420.067 181.73 419.231 182.431C417.413 183.96 414.719 184.794 412.395 185.071C404.875 185.969 394.009 185.001 386.149 184.905C375.444 184.774 364.745 185.228 354.04 185.149C351.624 182.209 349.115 179.368 346.575 176.537Z" fill="#A75978"/>
<path d="M354.04 185.149C345.125 185.484 336.225 185.386 327.304 185.457C322.431 185.495 317.432 185.892 312.572 185.639C311.522 185.584 310.448 185.462 309.504 184.972C308.327 184.362 306.715 182.887 306.521 181.504C306.409 180.71 306.712 180.046 307.244 179.482C308.656 177.986 311.402 177.441 313.362 177.143C316.895 176.606 320.663 176.72 324.233 176.646C331.68 176.53 339.128 176.494 346.576 176.537C349.115 179.368 351.624 182.209 354.04 185.149Z" fill="#D4D485"/>
<path d="M244.351 223.775C240.613 224.075 237.218 223.114 234.137 220.969C229.651 217.844 227.411 212.871 226.552 207.617C225.335 200.179 225.89 190.543 230.596 184.304C233.301 180.718 236.813 179.023 241.18 178.466C243.945 178.261 246.882 179.029 249.276 180.392C253.597 182.85 256.251 187.186 257.476 191.895C259.379 199.217 258.993 209.996 254.903 216.58C252.343 220.701 248.923 222.635 244.351 223.775ZM240.836 181.517C237.39 182.089 234.977 183.457 232.963 186.379C228.947 192.204 228.457 201.4 229.866 208.124C230.741 212.3 232.816 216.179 236.441 218.596C238.822 220.184 241.44 220.782 244.269 220.74C248.125 219.572 250.531 217.754 252.489 214.136C255.849 207.926 256.028 198.743 253.966 192.103C252.798 188.341 250.613 184.549 247.014 182.676C244.966 181.611 243.086 181.453 240.836 181.517Z" fill="#3A4A56"/>
<path d="M244.269 220.74C241.44 220.782 238.822 220.184 236.441 218.596C232.816 216.179 230.741 212.3 229.866 208.124C228.457 201.4 228.947 192.204 232.963 186.379C234.977 183.457 237.39 182.089 240.836 181.517C243.086 181.453 244.966 181.611 247.014 182.676C250.613 184.549 252.798 188.341 253.967 192.103C256.028 198.743 255.85 207.926 252.489 214.136C250.532 217.754 248.125 219.572 244.269 220.74Z" fill="#D4D485"/>
<path d="M366.649 234.203C353.824 234.373 340.998 234.477 328.171 234.515C322.9 234.534 316.46 235.126 311.319 234.387C309.705 234.156 308.145 233.595 306.85 232.587C305.487 231.527 304.581 230.289 304.448 228.531C304.314 226.755 304.724 225.05 305.962 223.735C307.47 222.134 309.705 221.334 311.815 220.93C316.086 220.114 320.9 220.333 325.261 220.223C335.699 220.044 346.138 219.945 356.577 219.926C368.158 220.089 379.771 219.704 391.355 219.612C398.416 219.555 406.008 219.151 412.985 220.409C415.617 220.884 418.617 221.744 420.502 223.748C421.564 224.873 422.178 226.534 422.02 228.082C421.872 229.51 421.045 230.67 419.928 231.531C418.033 232.993 415.5 233.588 413.164 233.89C406.881 234.702 400.169 234.085 393.824 234.01C384.766 233.878 375.705 233.943 366.649 234.203ZM365.995 222.203L331.525 222.276C325.418 222.326 318.814 221.986 312.791 222.925C311.137 223.184 309.331 223.608 308.132 224.87C307.357 225.686 306.881 226.936 306.995 228.066C307.126 229.372 308.005 230.508 309.069 231.216C310.464 232.143 312.192 232.311 313.818 232.447C320.293 232.989 327.02 232.558 333.513 232.475L366.566 232.007C376.086 231.645 385.705 231.652 395.231 231.775C400.718 231.845 406.477 232.374 411.933 231.836C413.846 231.648 415.867 231.268 417.496 230.191C418.583 229.475 419.107 228.73 419.397 227.479C419.271 226.618 419.052 226.058 418.407 225.463C417.117 224.271 415.626 223.524 413.935 223.085C407.149 221.322 399.225 221.777 392.25 221.811C383.497 221.84 374.745 221.971 365.995 222.203Z" fill="#3A4A56"/>
<path d="M365.995 222.203C374.745 221.971 383.497 221.84 392.25 221.811C399.225 221.777 407.149 221.322 413.935 223.085C415.626 223.524 417.117 224.271 418.407 225.463C419.052 226.058 419.271 226.618 419.397 227.479C419.107 228.73 418.583 229.475 417.496 230.191C415.867 231.268 413.846 231.648 411.932 231.836C406.477 232.374 400.718 231.845 395.231 231.775C385.705 231.652 376.086 231.645 366.566 232.007C366.597 228.77 366.288 225.425 365.995 222.203Z" fill="#A75978"/>
<path d="M366.566 232.007L333.513 232.475C327.02 232.558 320.293 232.989 313.818 232.447C312.192 232.311 310.464 232.143 309.069 231.216C308.005 230.508 307.126 229.372 306.995 228.066C306.881 226.936 307.357 225.686 308.132 224.87C309.331 223.608 311.137 223.184 312.791 222.925C318.814 221.986 325.418 222.326 331.525 222.276L365.995 222.203C366.288 225.425 366.597 228.77 366.566 232.007Z" fill="#D4D485"/>
<path d="M245.173 233.419C243.673 233.378 242.12 233.432 240.624 233.542C230.431 234.295 220.961 239.613 214.161 247.11C212.282 249.181 210.873 251.672 209.031 253.689C208.572 254.192 208.499 254.168 207.852 254.203C207.199 253.708 207.019 253.698 206.831 252.914C207.627 250.603 209.532 248.325 211.039 246.418C217.809 237.848 227.786 231.294 238.765 230.023C240.566 229.788 242.583 229.85 244.394 229.988C255.069 230.779 264.994 235.775 271.987 243.879C273.645 245.836 277.616 250.964 277.419 253.526L277.067 253.819C275.899 253.113 273.033 248.515 271.817 247.117C264.777 239.021 255.93 234.137 245.173 233.419Z" fill="#D4D485"/>
<path d="M211.568 255.588C212.557 253.785 213.613 252.155 214.938 250.579C221.865 242.344 231.346 237.416 242.025 236.51C245.569 236.279 249.406 236.793 252.788 237.853C261.263 240.511 270.413 247.962 274.484 255.875C265.119 259.113 254.64 259.427 244.826 259.411C233.873 259.139 222.15 258.596 211.568 255.588Z" fill="#D4D485"/>
<path d="M369.732 279.498C358.404 279.173 346.924 279.097 335.599 279.387C328.699 279.564 319.219 280.519 312.578 279.759C310.507 279.522 308.371 278.915 306.768 277.522C305.328 276.271 304.59 274.524 304.55 272.629C304.518 271.138 304.995 269.814 306.058 268.755C307.609 267.209 309.887 266.488 311.998 266.126C318.929 264.935 329.251 265.393 336.509 265.362L366.918 265.012C375.035 264.879 383.154 264.799 391.272 264.773C398.49 264.734 406.307 264.369 413.42 265.688C415.96 266.159 419.015 267.013 420.872 268.882C421.78 269.797 422.391 271.184 422.332 272.483C422.252 274.169 421.144 275.575 419.888 276.604C418.172 278.007 416.003 278.883 413.84 279.291C408.541 280.289 402.378 279.618 396.981 279.576L369.732 279.498ZM365.128 267.452L329.967 267.671C324.221 267.733 317.685 267.29 312.035 268.283C310.658 268.525 309.162 269.184 308.194 270.216C307.463 270.996 307.075 271.996 307.123 273.067C307.172 274.134 307.492 275.235 308.302 275.974C309.504 277.069 311.377 277.364 312.936 277.465C319.706 277.9 326.801 277.224 333.605 277.176C345.495 277.09 357.45 277.397 369.331 277.03C381.86 276.411 394.531 277.375 407.075 277.3C410.673 277.278 416.623 277.058 419.209 274.199C419.758 273.591 420.052 272.827 419.919 271.999C419.805 271.291 419.37 270.695 418.823 270.252C417.071 268.834 414.352 268.374 412.167 268.065C402.27 266.664 391.849 267.203 381.863 267.279C376.321 267.322 370.652 267.04 365.128 267.452Z" fill="#3A4A56"/>
<path d="M365.128 267.452C370.652 267.04 376.321 267.322 381.863 267.279C391.849 267.203 402.27 266.664 412.167 268.065C414.352 268.374 417.071 268.834 418.823 270.252C419.37 270.695 419.805 271.291 419.919 271.999C420.052 272.827 419.758 273.591 419.209 274.199C416.623 277.058 410.673 277.278 407.075 277.3C394.531 277.375 381.86 276.411 369.331 277.03C369.177 273.888 368.652 270.648 368.313 267.513L365.128 267.452Z" fill="#A75978"/>
<path d="M369.331 277.031C357.45 277.397 345.495 277.09 333.605 277.176C326.801 277.224 319.706 277.9 312.936 277.465C311.377 277.364 309.504 277.069 308.302 275.974C307.492 275.235 307.172 274.134 307.123 273.067C307.075 271.996 307.463 270.996 308.194 270.216C309.162 269.185 310.658 268.525 312.035 268.283C317.685 267.29 324.221 267.734 329.967 267.671L365.128 267.452L368.313 267.513C368.652 270.648 369.177 273.888 369.331 277.031Z" fill="#D4D485"/>
<path d="M382.804 326.205L250.085 324.758C239.565 324.711 229.045 324.862 218.531 325.212C213.44 325.335 208.247 325.702 203.164 325.502C200.718 325.403 197.981 325.196 196.09 323.471C194.786 322.283 193.937 320.546 193.959 318.768C193.979 317.092 194.801 315.725 195.967 314.574C197.95 312.615 200.459 312.075 203.13 311.785C210.333 311.007 217.713 311.056 224.952 311.056L257.169 311.356C297.418 311.925 337.67 312.244 377.922 312.312L399.796 312.214C404.573 312.189 409.698 311.828 414.411 312.627C416.845 313.041 419.586 313.877 421.385 315.651C422.385 316.639 422.946 317.848 422.854 319.268C422.749 320.947 421.953 322.422 420.681 323.502C418.814 325.085 416.278 325.832 413.895 326.199C409.399 326.893 404.607 326.341 400.07 326.255C394.315 326.202 388.56 326.185 382.804 326.205ZM378.398 314.445C339.112 314.469 299.827 314.143 260.548 313.466C247.559 313.368 234.597 313.004 221.603 313.155C215.836 313.223 210.031 313.124 204.29 313.75C201.828 314.019 198.543 314.784 196.799 316.651C196.275 317.21 195.901 317.895 195.973 318.685C196.089 319.956 197.134 321.41 198.153 322.116C199.617 323.132 201.908 323.357 203.635 323.419C208.581 323.595 213.645 323.271 218.599 323.193C228.949 323.015 239.301 322.921 249.652 322.913C273.679 323.122 297.705 323.468 321.728 323.949C341.228 324.147 360.728 323.854 380.225 324.286C387.473 323.931 394.793 324.119 402.048 324.113C405.847 324.107 410.025 324.415 413.766 323.675C415.676 323.292 417.475 322.709 418.928 321.36C419.87 320.487 420.45 319.759 420.533 318.444C420.348 317.895 420.2 317.586 419.78 317.17C418.407 315.803 415.401 315.142 413.516 314.867C409.186 314.235 404.588 314.463 400.212 314.445H378.398Z" fill="#3A4A56"/>
<path d="M380.225 324.286C360.728 323.854 341.228 324.147 321.728 323.949C297.705 323.468 273.679 323.122 249.652 322.913C239.301 322.921 228.949 323.015 218.599 323.193C213.645 323.271 208.581 323.595 203.635 323.419C201.908 323.357 199.617 323.132 198.153 322.116C197.134 321.41 196.089 319.956 195.973 318.685C195.901 317.895 196.275 317.21 196.799 316.651C198.543 314.784 201.828 314.019 204.29 313.75C210.031 313.124 215.836 313.223 221.603 313.155C234.597 313.004 247.559 313.368 260.548 313.466C299.827 314.143 339.112 314.469 378.398 314.445C379.185 316.577 381.656 321.919 381.332 323.946C380.956 324.085 380.623 324.218 380.225 324.286Z" fill="#D4D485"/>
<path d="M378.398 314.445H400.212C404.588 314.463 409.186 314.235 413.516 314.867C415.401 315.142 418.407 315.803 419.78 317.17C420.2 317.586 420.348 317.895 420.533 318.444C420.45 319.759 419.87 320.487 418.928 321.36C417.475 322.709 415.676 323.292 413.766 323.675C410.025 324.415 405.847 324.107 402.048 324.113C394.793 324.119 387.473 323.931 380.225 324.286C380.623 324.218 380.956 324.085 381.332 323.946C381.656 321.919 379.185 316.577 378.398 314.445Z" fill="#A75978"/>
<path d="M406.615 374.658C401.767 373.926 396.432 374.312 391.516 374.309L365.603 374.238L257.394 372.766C246.187 372.686 234.979 372.761 223.774 372.991C217.115 373.118 210.237 373.636 203.592 373.272C200.987 373.13 198.21 372.676 196.201 370.871C194.82 369.627 194.113 367.878 194.048 366.039C193.988 364.338 194.65 362.983 195.864 361.814C197.601 360.141 199.835 359.953 202.136 359.728C211.152 358.839 220.501 359.024 229.556 358.891C251.76 358.632 273.966 358.875 296.158 359.623C330.448 360.414 364.746 360.801 399.046 360.786C404.242 360.712 416.901 359.364 420.826 363.147C421.986 364.264 422.699 365.727 422.687 367.356C422.672 368.976 421.953 370.448 420.789 371.559C417.49 374.707 410.899 374.716 406.615 374.658ZM400.326 363.193C384.983 362.838 369.64 362.965 354.293 362.832L297.653 361.817C275.755 361.295 253.883 360.589 231.975 360.725C222.182 360.786 212.002 360.663 202.255 361.592C200.56 361.755 198.96 361.996 197.681 363.221C196.812 364.051 196.385 365.088 196.425 366.288C196.466 367.551 197.6 369.069 198.537 369.825C200.093 371.084 202.57 371.337 204.511 371.427C208.097 371.596 211.728 371.414 215.319 371.408C222.973 371.425 230.626 371.388 238.279 371.297L285.073 371.263C322.419 371.291 359.752 372.42 397.108 372.254C402.178 372.692 414.596 373.121 418.694 370.285C419.62 369.643 420.305 368.736 420.382 367.575C420.447 366.625 420.101 365.807 419.4 365.165C416.166 362.215 404.826 363.178 400.326 363.193Z" fill="#3A4A56"/>
<path d="M397.108 372.254C359.752 372.42 322.419 371.291 285.073 371.263L238.279 371.297C230.626 371.388 222.973 371.425 215.319 371.408C211.728 371.414 208.097 371.596 204.511 371.427C202.57 371.337 200.093 371.084 198.537 369.825C197.6 369.069 196.466 367.551 196.425 366.288C196.385 365.088 196.812 364.051 197.681 363.221C198.96 361.996 200.56 361.755 202.255 361.592C212.002 360.663 222.182 360.786 231.975 360.725C253.883 360.589 275.755 361.295 297.653 361.817L354.293 362.832C369.64 362.965 384.983 362.838 400.326 363.193C401.589 366.304 403.363 369.276 404.989 372.21C402.362 372.203 399.735 372.217 397.108 372.254Z" fill="#D4D485"/>
<path d="M400.326 363.193C404.826 363.178 416.166 362.215 419.4 365.165C420.101 365.807 420.447 366.625 420.382 367.575C420.305 368.736 419.62 369.643 418.694 370.285C414.596 373.121 402.178 372.692 397.108 372.254C399.735 372.217 402.362 372.203 404.989 372.21C403.363 369.276 401.588 366.304 400.326 363.193Z" fill="#A75978"/>
<path d="M407.554 376.484C418.052 389.313 430.291 400.814 445.072 408.606C445.659 416.404 445.304 424.384 445.43 432.21L446.325 473.917L446.791 500.286C446.976 507.266 447.578 514.497 446.834 521.44C446.418 525.319 445.298 528.991 442.702 532.003C439.388 535.845 435.022 537.703 430.013 537.987C422.057 538.441 413.722 537.367 405.748 537.015C389.115 536.283 372.392 535.577 355.741 535.802C373.476 516.925 391.102 492.256 401.925 468.68C407.47 468.874 415.759 469.152 420.382 465.73C421.746 464.721 423.085 463.11 423.227 461.351C423.341 459.913 422.647 458.694 421.669 457.694C418.135 454.083 412.223 454.386 407.544 454.299C408.748 449.936 410.174 445.554 411.078 441.119C412.457 434.38 412.939 427.467 413.435 420.619C416.009 420.268 418.678 419.993 420.808 418.348C421.916 417.487 422.77 416.278 422.912 414.855C423.054 413.411 422.542 412.05 421.595 410.973C419.286 408.35 415.864 408.078 412.624 407.825C412.365 397.222 409.214 386.881 407.554 376.484Z" fill="#FFFFFA"/>
<path d="M413.435 420.619C363.425 421.178 313.463 419.598 263.466 419.092C250.996 418.945 238.525 418.999 226.056 419.255C218.099 419.475 209.944 420.246 202.002 419.95C199.781 419.866 197.373 419.363 195.691 417.805C194.406 416.614 194.005 415.136 194.015 413.423C194.026 411.565 194.687 409.967 196.074 408.711C197.512 407.412 199.42 406.841 201.3 406.557C204.675 406.048 208.29 406.149 211.708 406.032C219.341 405.798 226.977 405.626 234.613 405.517C258.141 405.168 281.852 405.529 305.374 406.196C319.762 406.603 334.133 407.288 348.526 407.501C361.538 407.634 374.55 407.678 387.563 407.634C395.895 407.618 404.301 407.442 412.624 407.825C415.864 408.078 419.286 408.35 421.595 410.973C422.542 412.05 423.054 413.411 422.912 414.855C422.77 416.277 421.916 417.487 420.808 418.348C418.678 419.993 416.009 420.268 413.435 420.619ZM412.988 410.423C403.107 409.775 393.192 409.834 383.295 409.794C367.394 409.831 351.494 409.701 335.596 409.405C306.604 408.436 277.6 407.839 248.593 407.612C237.799 407.477 227.003 407.594 216.215 407.964C212.142 408.097 207.988 408.072 203.932 408.439C201.434 408.668 198.5 409.309 196.541 410.97C196.014 411.417 195.618 411.936 195.529 412.642C195.359 413.985 196.459 415.327 197.345 416.216C197.684 416.561 198.07 416.857 198.491 417.095C200.051 417.972 201.965 417.913 203.699 417.932C212.892 418.012 222.101 417.533 231.297 417.459C252.641 417.3 273.987 417.335 295.33 417.564C307.538 417.682 319.74 418.138 331.945 418.305C347.85 418.527 363.767 418.465 379.672 418.465C389.303 418.469 398.984 418.641 408.612 418.367C410.179 418.329 411.744 418.266 413.309 418.178C414.71 417.972 416.241 417.799 417.555 417.262C418.555 416.858 419.663 416.006 419.99 414.938C420.228 414.173 420.021 413.537 419.598 412.892C418.243 410.812 415.182 410.683 412.988 410.423Z" fill="#3A4A56"/>
<path d="M413.309 418.179C411.744 418.266 410.179 418.329 408.612 418.367C398.984 418.641 389.303 418.469 379.672 418.466C363.767 418.466 347.85 418.527 331.945 418.305C319.74 418.138 307.538 417.682 295.33 417.564C273.987 417.335 252.641 417.301 231.297 417.46C222.101 417.534 212.892 418.012 203.699 417.932C201.965 417.913 200.051 417.972 198.491 417.095C198.07 416.857 197.684 416.561 197.345 416.216C196.459 415.327 195.359 413.985 195.529 412.642C195.618 411.936 196.014 411.417 196.541 410.97C198.5 409.31 201.434 408.668 203.932 408.439C207.988 408.072 212.142 408.097 216.215 407.964C227.003 407.594 237.799 407.477 248.593 407.612C277.6 407.839 306.604 408.436 335.596 409.405C351.494 409.702 367.394 409.831 383.295 409.794C393.192 409.834 403.107 409.776 412.988 410.424L413.309 418.179Z" fill="#D4D485"/>
<path d="M448.057 409.803C452.932 411.488 457.719 413.303 462.881 413.88L462.946 478.947C462.931 489.704 463.594 501.024 462.31 511.71C461.903 515.12 461.141 518.444 459.32 521.394C456.691 525.659 453.179 527.464 448.504 528.621C450.96 519.243 449.899 508.893 449.735 499.258C449.586 489.387 449.372 479.517 449.093 469.649C448.603 449.703 448.258 429.754 448.057 409.803Z" fill="#FFFFFA"/>
<path d="M412.988 410.424C415.182 410.683 418.243 410.812 419.598 412.892C420.021 413.537 420.228 414.173 419.99 414.938C419.663 416.006 418.555 416.858 417.555 417.262C416.24 417.799 414.71 417.972 413.309 418.178L412.988 410.424Z" fill="#FFFFFA"/>
<path d="M476.135 413.932C478.651 413.729 481.122 413.463 483.613 413.077C483.644 415.432 483.461 418.018 483.829 420.336L484.143 466.217C484.187 474.111 485.02 485.511 483.338 493.09C482.594 496.429 480.724 498.984 478.53 501.493C478.077 491.577 478.157 481.607 477.879 471.682C477.194 452.436 476.613 433.185 476.135 413.932Z" fill="#FFFFFA"/>
<path d="M465.622 414.241L473.176 414.741C474.009 432.636 474.401 450.578 474.972 468.482C475.308 479.039 476.355 490.087 475.586 500.604C475.312 504.369 474.812 508.063 472.969 511.414C470.92 515.148 468.155 516.478 464.242 517.595C466.433 504.002 465.733 490.065 465.751 476.324L465.622 414.241Z" fill="#FFFFFA"/>
<path d="M401.925 468.68C381.397 467.887 360.663 468.754 340.104 468.643L250.984 467.467C241.397 467.342 231.809 467.413 222.225 467.68C215.586 467.868 208.511 468.581 201.911 468.1C199.667 467.936 197.418 467.371 195.76 465.761C194.155 464.199 193.153 461.891 193.178 459.644C193.192 458.373 193.737 457.237 194.648 456.361C196.138 454.932 198.308 454.256 200.299 453.92C204.911 453.142 209.834 453.17 214.504 453.043C222.01 452.843 229.518 452.746 237.027 452.753C254.046 452.733 271.065 452.952 288.078 453.411C303.419 453.852 318.737 454.589 334.087 454.747C358.573 454.76 383.06 454.611 407.544 454.299C412.223 454.386 418.135 454.083 421.669 457.694C422.647 458.694 423.341 459.913 423.227 461.351C423.085 463.11 421.746 464.721 420.382 465.73C415.759 469.152 407.47 468.874 401.925 468.68ZM409.905 456.972C401.968 456.034 392.13 456.756 384.039 456.83C368.294 456.99 352.548 457.058 336.802 457.034C322.283 456.975 307.801 456.234 293.293 455.781C273.214 455.17 253.127 454.908 233.039 454.994C225.427 455.03 217.816 455.173 210.209 455.423C207.349 455.525 204.267 455.432 201.442 455.802C199.894 456.006 198.255 456.478 197.026 457.484C196.119 458.228 195.443 459.317 195.415 460.511C195.387 461.715 195.943 462.727 196.797 463.536C198.745 465.384 201.578 466.051 204.178 466.214C211.761 466.696 222.241 465.785 230.118 465.591C244.165 465.358 258.214 465.306 272.263 465.433C281.888 465.511 291.529 465.495 301.151 465.717C310.717 465.933 320.277 466.409 329.844 466.551C346.696 466.801 363.607 466.652 380.459 466.467C388.146 466.381 395.916 466.612 403.588 466.31C407.729 466.301 415.352 466.773 418.759 463.986C419.579 463.317 420.042 462.403 420.138 461.351C420.224 460.363 419.916 459.592 419.228 458.888C417.265 456.879 412.513 457.03 409.905 456.972Z" fill="#3A4A56"/>
<path d="M409.905 456.972C408.89 457.009 407.467 456.851 406.622 457.382C405.511 460.323 404.557 463.32 403.588 466.31C395.916 466.612 388.146 466.381 380.459 466.467C363.607 466.652 346.696 466.801 329.843 466.551C320.277 466.409 310.717 465.933 301.151 465.717C291.529 465.495 281.888 465.511 272.263 465.433C258.214 465.306 244.165 465.358 230.118 465.591C222.241 465.785 211.761 466.696 204.178 466.214C201.578 466.051 198.745 465.384 196.797 463.536C195.943 462.727 195.387 461.715 195.415 460.511C195.443 459.317 196.119 458.228 197.026 457.484C198.254 456.478 199.894 456.006 201.442 455.802C204.267 455.432 207.349 455.525 210.209 455.423C217.816 455.173 225.427 455.03 233.039 454.994C253.127 454.908 273.214 455.17 293.293 455.781C307.801 456.234 322.283 456.975 336.802 457.034C352.548 457.058 368.294 456.99 384.039 456.83C392.13 456.756 401.968 456.034 409.905 456.972Z" fill="#D4D485"/>
<path d="M403.588 466.31C404.557 463.32 405.511 460.323 406.622 457.382C407.467 456.851 408.89 457.009 409.905 456.972C412.513 457.03 417.265 456.879 419.228 458.888C419.916 459.592 420.224 460.363 420.138 461.351C420.042 462.403 419.579 463.317 418.759 463.986C415.352 466.773 407.729 466.301 403.588 466.31Z" fill="#FFFFFA"/>
</g>
<defs>
<linearGradient id="paint0_linear_577_1962" x1="532.938" y1="232.9" x2="115.99" y2="408.035" gradientUnits="userSpaceOnUse">
<stop stop-color="#444041"/>
<stop offset="1" stop-color="#3D5464"/>
</linearGradient>
<clipPath id="clip0_577_1962">
<rect width="632" height="632" fill="white"/>
</clipPath>
</defs>
</svg>
