<svg width="256" height="256" viewBox="0 0 256 256" fill="none" xmlns="http://www.w3.org/2000/svg">
  <defs>
    <linearGradient id="pbg" x1="24" y1="22" x2="228" y2="236" gradientUnits="userSpaceOnUse">
      <stop stop-color="#9EE0FF"/>
      <stop offset="1" stop-color="#216FE0"/>
    </linearGradient>
    <linearGradient id="pcrown" x1="76" y1="56" x2="178" y2="136" gradientUnits="userSpaceOnUse">
      <stop stop-color="#FFFFFF"/>
      <stop offset="1" stop-color="#DDF1FF"/>
    </linearGradient>
    <linearGradient id="pbubble" x1="146" y1="126" x2="222" y2="202" gradientUnits="userSpaceOnUse">
      <stop stop-color="#D7F1FF"/>
      <stop offset="1" stop-color="#5CB4FF"/>
    </linearGradient>
  </defs>
  <rect x="18" y="18" width="220" height="220" rx="56" fill="url(#pbg)"/>
  <rect x="58" y="50" width="112" height="142" rx="24" fill="white" fill-opacity="0.96"/>
  <path d="M83 84L96 106L114 84L128 106L145 84L155 108C156.637 111.93 153.751 116.25 149.494 116.25H88.426C84.1864 116.25 81.3009 111.965 82.903 108.04L83 84Z" fill="url(#pcrown)"/>
  <rect x="76" y="128" width="76" height="10" rx="5" fill="#67BAF5"/>
  <rect x="76" y="152" width="54" height="10" rx="5" fill="#B3E1FF"/>
  <rect x="146" y="126" width="76" height="76" rx="24" fill="url(#pbubble)"/>
  <path d="M185.5 146L190.605 156.346L202 158.002L193.75 166.044L195.698 177.392L185.5 172.03L175.302 177.392L177.25 166.044L169 158.002L180.395 156.346L185.5 146Z" fill="white"/>
</svg>
