<svg width="256" height="256" viewBox="0 0 256 256" fill="none" xmlns="http://www.w3.org/2000/svg">
  <defs>
    <linearGradient id="bg" x1="32" y1="24" x2="224" y2="232" gradientUnits="userSpaceOnUse">
      <stop stop-color="#7FD2FF"/>
      <stop offset="1" stop-color="#1F7DE8"/>
    </linearGradient>
    <linearGradient id="bubble" x1="146" y1="120" x2="220" y2="194" gradientUnits="userSpaceOnUse">
      <stop stop-color="#BFEAFF"/>
      <stop offset="1" stop-color="#4AA9FF"/>
    </linearGradient>
  </defs>
  <rect x="18" y="18" width="220" height="220" rx="56" fill="url(#bg)"/>
  <rect x="58" y="44" width="112" height="148" rx="24" fill="white" fill-opacity="0.96"/>
  <path d="M142 44H170V72C170 76.4183 166.418 80 162 80H142V44Z" fill="#DDF1FF"/>
  <rect x="76" y="92" width="76" height="10" rx="5" fill="#67BAF5"/>
  <rect x="76" y="116" width="62" height="10" rx="5" fill="#8BCBF9"/>
  <rect x="76" y="140" width="50" height="10" rx="5" fill="#B3E1FF"/>
  <rect x="146" y="126" width="74" height="74" rx="24" fill="url(#bubble)"/>
  <path d="M183 145C186.314 145 189 147.686 189 151V160H198C201.314 160 204 162.686 204 166C204 169.314 201.314 172 198 172H189V181C189 184.314 186.314 187 183 187C179.686 187 177 184.314 177 181V172H168C164.686 172 162 169.314 162 166C162 162.686 164.686 160 168 160H177V151C177 147.686 179.686 145 183 145Z" fill="white"/>
  <circle cx="78" cy="190" r="10" fill="#B7E0FF" fill-opacity="0.72"/>
</svg>
